<?xml version="1.0" encoding="UTF-8"?>
<!DOCTYPE svg PUBLIC "-//W3C//DTD SVG 1.1//EN" "http://www.w3.org/Graphics/SVG/1.1/DTD/svg11.dtd">
<svg xmlns="http://www.w3.org/2000/svg" version="1.1" width="960px" height="960px" style="shape-rendering:geometricPrecision; text-rendering:geometricPrecision; image-rendering:optimizeQuality; fill-rule:evenodd; clip-rule:evenodd" xmlns:xlink="http://www.w3.org/1999/xlink">
<g><path style="opacity:1" fill="#3b579d" d="M 45.5,-0.5 C 334.833,-0.5 624.167,-0.5 913.5,-0.5C 938.833,4.83333 954.167,20.1667 959.5,45.5C 959.5,334.833 959.5,624.167 959.5,913.5C 954.167,938.833 938.833,954.167 913.5,959.5C 830.5,959.5 747.5,959.5 664.5,959.5C 664.5,836.167 664.5,712.833 664.5,589.5C 705.514,590.161 746.18,589.494 786.5,587.5C 787.972,583.081 788.638,578.414 788.5,573.5C 788.741,568.306 789.407,563.306 790.5,558.5C 793.008,548.794 794.342,538.794 794.5,528.5C 794.674,526.139 795.007,523.806 795.5,521.5C 796.315,520.571 797.148,519.571 798,518.5C 799.977,501.453 802.144,484.12 804.5,466.5C 804.41,464.772 804.077,463.106 803.5,461.5C 804.969,456.278 805.636,450.945 805.5,445.5C 805.5,444.5 805.5,443.5 805.5,442.5C 757.833,442.5 710.167,442.5 662.5,442.5C 662.333,407.165 662.5,371.832 663,336.5C 663.501,332.49 664.001,328.49 664.5,324.5C 669.579,298.76 685.246,284.427 711.5,281.5C 744.657,280.892 777.657,280.225 810.5,279.5C 810.5,236.167 810.5,192.833 810.5,149.5C 765.906,145.994 721.239,144.661 676.5,145.5C 669.578,145.656 662.911,146.656 656.5,148.5C 580.236,162.765 533.903,207.765 517.5,283.5C 515.678,288.205 514.678,293.205 514.5,298.5C 514.111,303.504 513.611,308.504 513,313.5C 512.5,356.499 512.333,399.499 512.5,442.5C 470.5,442.5 428.5,442.5 386.5,442.5C 386.5,490.833 386.5,539.167 386.5,587.5C 428.5,587.5 470.5,587.5 512.5,587.5C 512.5,711.5 512.5,835.5 512.5,959.5C 356.833,959.5 201.167,959.5 45.5,959.5C 20.1667,954.167 4.83333,938.833 -0.5,913.5C -0.5,624.167 -0.5,334.833 -0.5,45.5C 4.83333,20.1667 20.1667,4.83333 45.5,-0.5 Z"/></g>
<g><path style="opacity:1" fill="#fefefe" d="M 676.5,145.5 C 721.239,144.661 765.906,145.994 810.5,149.5C 810.5,192.833 810.5,236.167 810.5,279.5C 779.498,279.333 748.498,279.5 717.5,280C 715.292,280.191 713.292,280.691 711.5,281.5C 685.246,284.427 669.579,298.76 664.5,324.5C 662.941,327.868 662.108,331.535 662,335.5C 661.169,371.336 661.336,407.002 662.5,442.5C 710.009,442.835 757.342,443.835 804.5,445.5C 801.907,470.883 798.907,496.216 795.5,521.5C 795.007,523.806 794.674,526.139 794.5,528.5C 792.667,538.3 791.334,548.3 790.5,558.5C 789.407,563.306 788.741,568.306 788.5,573.5C 787.199,577.943 786.532,582.609 786.5,587.5C 745.167,587.5 703.833,587.5 662.5,587.5C 662.5,711.5 662.5,835.5 662.5,959.5C 612.5,959.5 562.5,959.5 512.5,959.5C 512.5,835.5 512.5,711.5 512.5,587.5C 471.003,586.501 429.337,586.168 387.5,586.5C 387.5,538.833 387.5,491.167 387.5,443.5C 429.337,443.832 471.003,443.499 512.5,442.5C 512.333,399.499 512.5,356.499 513,313.5C 513.611,308.504 514.111,303.504 514.5,298.5C 516.138,293.752 517.138,288.752 517.5,283.5C 533.903,207.765 580.236,162.765 656.5,148.5C 663.422,148.344 670.089,147.344 676.5,145.5 Z"/></g>
<g><path style="opacity:1" fill="#c5cde2" d="M 676.5,145.5 C 670.089,147.344 663.422,148.344 656.5,148.5C 662.911,146.656 669.578,145.656 676.5,145.5 Z"/></g>
<g><path style="opacity:1" fill="#7a8dbc" d="M 810.5,279.5 C 777.657,280.225 744.657,280.892 711.5,281.5C 713.292,280.691 715.292,280.191 717.5,280C 748.498,279.5 779.498,279.333 810.5,279.5 Z"/></g>
<g><path style="opacity:1" fill="#94a2c9" d="M 517.5,283.5 C 517.138,288.752 516.138,293.752 514.5,298.5C 514.678,293.205 515.678,288.205 517.5,283.5 Z"/></g>
<g><path style="opacity:1" fill="#dce0ed" d="M 664.5,324.5 C 664.001,328.49 663.501,332.49 663,336.5C 662.5,371.832 662.333,407.165 662.5,442.5C 661.336,407.002 661.169,371.336 662,335.5C 662.108,331.535 662.941,327.868 664.5,324.5 Z"/></g>
<g><path style="opacity:1" fill="#a8b5d4" d="M 662.5,442.5 C 710.167,442.5 757.833,442.5 805.5,442.5C 805.5,443.5 805.5,444.5 805.5,445.5C 805.167,445.5 804.833,445.5 804.5,445.5C 757.342,443.835 710.009,442.835 662.5,442.5 Z"/></g>
<g><path style="opacity:1" fill="#4e65a6" d="M 804.5,445.5 C 804.833,445.5 805.167,445.5 805.5,445.5C 805.636,450.945 804.969,456.278 803.5,461.5C 804.077,463.106 804.41,464.772 804.5,466.5C 802.144,484.12 799.977,501.453 798,518.5C 797.148,519.571 796.315,520.571 795.5,521.5C 798.907,496.216 801.907,470.883 804.5,445.5 Z"/></g>
<g><path style="opacity:1" fill="#5e73ae" d="M 794.5,528.5 C 794.342,538.794 793.008,548.794 790.5,558.5C 791.334,548.3 792.667,538.3 794.5,528.5 Z"/></g>
<g><path style="opacity:1" fill="#91a0c8" d="M 788.5,573.5 C 788.638,578.414 787.972,583.081 786.5,587.5C 786.532,582.609 787.199,577.943 788.5,573.5 Z"/></g>
<g><path style="opacity:1" fill="#d0d6e7" d="M 512.5,442.5 C 471.003,443.499 429.337,443.832 387.5,443.5C 387.5,491.167 387.5,538.833 387.5,586.5C 429.337,586.168 471.003,586.501 512.5,587.5C 470.5,587.5 428.5,587.5 386.5,587.5C 386.5,539.167 386.5,490.833 386.5,442.5C 428.5,442.5 470.5,442.5 512.5,442.5 Z"/></g>
<g><path style="opacity:1" fill="#36539b" d="M 786.5,587.5 C 746.18,589.494 705.514,590.161 664.5,589.5C 664.5,712.833 664.5,836.167 664.5,959.5C 663.833,959.5 663.167,959.5 662.5,959.5C 662.5,835.5 662.5,711.5 662.5,587.5C 703.833,587.5 745.167,587.5 786.5,587.5 Z"/></g>
</svg>
