<?xml version="1.0" encoding="UTF-8"?>
<!DOCTYPE svg PUBLIC "-//W3C//DTD SVG 1.1//EN" "http://www.w3.org/Graphics/SVG/1.1/DTD/svg11.dtd">
<svg xmlns="http://www.w3.org/2000/svg" version="1.1" width="204px" height="192px" style="shape-rendering:geometricPrecision; text-rendering:geometricPrecision; image-rendering:optimizeQuality; fill-rule:evenodd; clip-rule:evenodd" xmlns:xlink="http://www.w3.org/1999/xlink">
<g><path style="opacity:1" fill="#f5f5f4" d="M -0.5,-0.5 C 46.5,-0.5 93.5,-0.5 140.5,-0.5C 141.207,1.1344 142.373,2.46773 144,3.5C 144.186,7.44906 145.853,10.4491 149,12.5C 150.086,10.153 151.419,10.153 153,12.5C 154.69,11.8505 156.523,11.8505 158.5,12.5C 158.5,13.8333 158.5,15.1667 158.5,16.5C 161.596,15.9066 163.929,16.9066 165.5,19.5C 163.548,20.1033 161.548,19.77 159.5,18.5C 158.537,18.9698 158.537,19.6365 159.5,20.5C 152.522,16.6769 145.522,12.8435 138.5,9C 129.659,5.7054 120.659,3.53873 111.5,2.5C 105.013,1.34602 98.3464,1.17935 91.5,2C 88.8958,2.39034 86.5625,3.22367 84.5,4.5C 55.3552,10.7279 34.0218,27.0612 20.5,53.5C 13.2422,66.4321 9.90887,80.4321 10.5,95.5C 10.2942,108.266 12.4608,120.599 17,132.5C 17.9487,134.093 19.1154,135.426 20.5,136.5C 23.2039,144.902 27.7039,152.236 34,158.5C 41.2181,165.996 49.0514,172.663 57.5,178.5C 56.4125,180 55.0792,181.333 53.5,182.5C 50.5719,183.484 47.5719,183.817 44.5,183.5C 44.5,182.5 44.5,181.5 44.5,180.5C 42.6412,180.461 41.3079,181.294 40.5,183C 38.8659,183.494 37.1992,183.66 35.5,183.5C 35.5,182.5 35.5,181.5 35.5,180.5C 33.1897,181.457 30.8564,182.457 28.5,183.5C 25.3589,181.797 23.0256,179.297 21.5,176C 24.8469,174.794 27.1803,175.794 28.5,179C 29.448,179.483 30.448,179.649 31.5,179.5C 31.8333,176.5 30.5,175.167 27.5,175.5C 27.5,173.833 27.5,172.167 27.5,170.5C 28.8333,170.5 30.1667,170.5 31.5,170.5C 31.5,171.833 31.5,173.167 31.5,174.5C 32.8333,174.5 34.1667,174.5 35.5,174.5C 35.6495,173.448 35.4828,172.448 35,171.5C 33.2601,167.973 30.4268,166.306 26.5,166.5C 26.5,167.5 26.5,168.5 26.5,169.5C 25.448,169.351 24.448,169.517 23.5,170C 22.2744,171.635 20.941,173.135 19.5,174.5C 19.1667,174 18.8333,173.5 18.5,173C 20.2009,171.14 21.2009,168.973 21.5,166.5C 20.1667,166.5 18.8333,166.5 17.5,166.5C 17.6162,169.91 15.9496,171.244 12.5,170.5C 12.5,172.167 12.5,173.833 12.5,175.5C 10.3944,175.679 8.7277,176.679 7.5,178.5C 8.66848,180.217 10.3352,180.884 12.5,180.5C 12.6602,182.199 12.4935,183.866 12,185.5C 11.586,185.043 11.086,184.709 10.5,184.5C 9.57131,185.689 9.23798,187.022 9.5,188.5C 10.675,188.719 11.675,188.386 12.5,187.5C 15.027,185.395 17.3603,183.061 19.5,180.5C 20.5,180.833 21.1667,181.5 21.5,182.5C 20.1667,183.833 18.8333,185.167 17.5,186.5C 18.3202,188.111 19.6536,188.778 21.5,188.5C 21.5,189.5 21.5,190.5 21.5,191.5C 14.1667,191.5 6.83333,191.5 -0.5,191.5C -0.5,127.5 -0.5,63.5 -0.5,-0.5 Z"/></g>
<g><path style="opacity:1" fill="#f5f5f5" d="M 140.5,-0.5 C 161.5,-0.5 182.5,-0.5 203.5,-0.5C 203.5,63.5 203.5,127.5 203.5,191.5C 142.833,191.5 82.1667,191.5 21.5,191.5C 21.5,190.5 21.5,189.5 21.5,188.5C 19.6536,188.778 18.3202,188.111 17.5,186.5C 18.8333,185.167 20.1667,183.833 21.5,182.5C 21.1667,181.5 20.5,180.833 19.5,180.5C 17.3603,183.061 15.027,185.395 12.5,187.5C 11.675,188.386 10.675,188.719 9.5,188.5C 9.23798,187.022 9.57131,185.689 10.5,184.5C 11.086,184.709 11.586,185.043 12,185.5C 12.4935,183.866 12.6602,182.199 12.5,180.5C 10.3352,180.884 8.66848,180.217 7.5,178.5C 8.7277,176.679 10.3944,175.679 12.5,175.5C 12.5,173.833 12.5,172.167 12.5,170.5C 15.9496,171.244 17.6162,169.91 17.5,166.5C 18.8333,166.5 20.1667,166.5 21.5,166.5C 21.2009,168.973 20.2009,171.14 18.5,173C 18.8333,173.5 19.1667,174 19.5,174.5C 20.941,173.135 22.2744,171.635 23.5,170C 24.448,169.517 25.448,169.351 26.5,169.5C 26.5,168.5 26.5,167.5 26.5,166.5C 30.4268,166.306 33.2601,167.973 35,171.5C 35.4828,172.448 35.6495,173.448 35.5,174.5C 34.1667,174.5 32.8333,174.5 31.5,174.5C 31.5,173.167 31.5,171.833 31.5,170.5C 30.1667,170.5 28.8333,170.5 27.5,170.5C 27.5,172.167 27.5,173.833 27.5,175.5C 30.5,175.167 31.8333,176.5 31.5,179.5C 30.448,179.649 29.448,179.483 28.5,179C 27.1803,175.794 24.8469,174.794 21.5,176C 23.0256,179.297 25.3589,181.797 28.5,183.5C 30.8564,182.457 33.1897,181.457 35.5,180.5C 35.5,181.5 35.5,182.5 35.5,183.5C 37.1992,183.66 38.8659,183.494 40.5,183C 41.3079,181.294 42.6412,180.461 44.5,180.5C 44.5,181.5 44.5,182.5 44.5,183.5C 47.5719,183.817 50.5719,183.484 53.5,182.5C 55.0792,181.333 56.4125,180 57.5,178.5C 78.9148,189.494 101.581,192.661 125.5,188C 140.383,183.899 153.383,176.733 164.5,166.5C 167.14,163.029 170.306,160.029 174,157.5C 189.777,133.889 195.61,107.889 191.5,79.5C 162.167,79.5 132.833,79.5 103.5,79.5C 103.5,86.1667 103.5,92.8333 103.5,99.5C 102.849,98.9094 102.182,98.2427 101.5,97.5C 100.246,99.5378 98.5792,101.204 96.5,102.5C 95.5481,100.955 95.2148,99.288 95.5,97.5C 93.8333,97.5 92.1667,97.5 90.5,97.5C 90.3505,96.448 90.5172,95.448 91,94.5C 93.719,93.3234 95.219,91.6567 95.5,89.5C 92.2125,88.4317 90.5458,89.7651 90.5,93.5C 87.1957,93.3002 84.6957,94.6336 83,97.5C 81.6693,96.0042 80.1693,94.6709 78.5,93.5C 77.6143,94.325 77.281,95.325 77.5,96.5C 78.5,96.5 79.5,96.5 80.5,96.5C 80.6602,98.1992 80.4935,99.8659 80,101.5C 77.7465,104.274 74.9131,105.941 71.5,106.5C 71.5,105.167 71.5,103.833 71.5,102.5C 68.5,102.167 67.1667,103.5 67.5,106.5C 66.1667,106.5 64.8333,106.5 63.5,106.5C 63.5708,103.861 64.5708,101.694 66.5,100C 64.1875,96.6415 62.8542,97.1415 62.5,101.5C 61.1667,101.5 59.8333,101.5 58.5,101.5C 58.5,103.167 58.5,104.833 58.5,106.5C 57.5,106.5 56.5,106.5 55.5,106.5C 55.3398,104.801 55.5065,103.134 56,101.5C 58.6432,100.024 60.8099,98.0237 62.5,95.5C 61.8333,95.1667 61.1667,94.8333 60.5,94.5C 58.9644,95.2485 57.6311,96.2485 56.5,97.5C 54.7298,94.8066 54.0632,91.8066 54.5,88.5C 55.8333,88.5 57.1667,88.5 58.5,88.5C 58.5,87.1667 58.5,85.8333 58.5,84.5C 56.8333,84.5 55.1667,84.5 53.5,84.5C 53.9465,81.9899 53.2798,79.9899 51.5,78.5C 51.5,78.1667 51.5,77.8333 51.5,77.5C 59.2791,57.2356 73.9458,45.069 95.5,41C 103.607,40.1733 111.607,40.6733 119.5,42.5C 123.374,45.267 127.707,47.267 132.5,48.5C 134.017,50.1842 135.85,51.5175 138,52.5C 146.315,43.8523 154.982,35.519 164,27.5C 164.667,26.5 164.667,25.5 164,24.5C 162.008,23.6719 160.508,22.3386 159.5,20.5C 158.537,19.6365 158.537,18.9698 159.5,18.5C 161.548,19.77 163.548,20.1033 165.5,19.5C 163.929,16.9066 161.596,15.9066 158.5,16.5C 158.5,15.1667 158.5,13.8333 158.5,12.5C 156.523,11.8505 154.69,11.8505 153,12.5C 151.419,10.153 150.086,10.153 149,12.5C 145.853,10.4491 144.186,7.44906 144,3.5C 142.373,2.46773 141.207,1.1344 140.5,-0.5 Z"/></g>
<g><path style="opacity:1" fill="#f9c3b4" d="M 111.5,2.5 C 102.426,2.2962 93.4257,2.96287 84.5,4.5C 86.5625,3.22367 88.8958,2.39034 91.5,2C 98.3464,1.17935 105.013,1.34602 111.5,2.5 Z"/></g>
<g><path style="opacity:1" fill="#eb4235" d="M 111.5,2.5 C 120.659,3.53873 129.659,5.7054 138.5,9C 145.522,12.8435 152.522,16.6769 159.5,20.5C 160.508,22.3386 162.008,23.6719 164,24.5C 164.667,25.5 164.667,26.5 164,27.5C 154.982,35.519 146.315,43.8523 138,52.5C 135.85,51.5175 134.017,50.1842 132.5,48.5C 129.752,46.3994 126.752,44.5661 123.5,43C 122.207,42.51 120.873,42.3433 119.5,42.5C 111.607,40.6733 103.607,40.1733 95.5,41C 73.9458,45.069 59.2791,57.2356 51.5,77.5C 50.8826,77.6107 50.3826,77.944 50,78.5C 46.3081,75.6352 42.8081,72.6352 39.5,69.5C 38.4154,67.4131 36.7488,66.0798 34.5,65.5C 32.7446,64.9278 31.0779,64.0945 29.5,63C 26.841,59.3745 23.841,56.2078 20.5,53.5C 34.0218,27.0612 55.3552,10.7279 84.5,4.5C 93.4257,2.96287 102.426,2.2962 111.5,2.5 Z"/></g>
<g><path style="opacity:1" fill="#e9736a" d="M 119.5,42.5 C 120.873,42.3433 122.207,42.51 123.5,43C 126.752,44.5661 129.752,46.3994 132.5,48.5C 127.707,47.267 123.374,45.267 119.5,42.5 Z"/></g>
<g><path style="opacity:1" fill="#ec7525" d="M 34.5,65.5 C 36.7488,66.0798 38.4154,67.4131 39.5,69.5C 37.2512,68.9202 35.5846,67.5869 34.5,65.5 Z"/></g>
<g><path style="opacity:1" fill="#f8bd0c" d="M 20.5,53.5 C 23.841,56.2078 26.841,59.3745 29.5,63C 31.0779,64.0945 32.7446,64.9278 34.5,65.5C 35.5846,67.5869 37.2512,68.9202 39.5,69.5C 42.8081,72.6352 46.3081,75.6352 50,78.5C 50.3826,77.944 50.8826,77.6107 51.5,77.5C 51.5,77.8333 51.5,78.1667 51.5,78.5C 47.8854,89.3556 47.5521,100.356 50.5,111.5C 49.6109,113.736 48.2776,115.736 46.5,117.5C 37.5262,123.483 28.8596,129.816 20.5,136.5C 19.1154,135.426 17.9487,134.093 17,132.5C 12.4608,120.599 10.2942,108.266 10.5,95.5C 9.90887,80.4321 13.2422,66.4321 20.5,53.5 Z"/></g>
<g><path style="opacity:1" fill="#4287f5" d="M 164.5,166.5 C 158.472,161.142 152.139,156.142 145.5,151.5C 144.055,149.937 142.389,148.604 140.5,147.5C 138.938,147.267 137.605,146.6 136.5,145.5C 136.167,144.833 135.833,144.167 135.5,143.5C 140.823,139.175 145.489,134.175 149.5,128.5C 151.299,124.304 152.632,119.97 153.5,115.5C 136.833,115.5 120.167,115.5 103.5,115.5C 103.5,110.167 103.5,104.833 103.5,99.5C 103.5,92.8333 103.5,86.1667 103.5,79.5C 132.833,79.5 162.167,79.5 191.5,79.5C 195.61,107.889 189.777,133.889 174,157.5C 170.306,160.029 167.14,163.029 164.5,166.5 Z"/></g>
<g><path style="opacity:1" fill="#f5f5f4" d="M 51.5,78.5 C 53.2798,79.9899 53.9465,81.9899 53.5,84.5C 55.1667,84.5 56.8333,84.5 58.5,84.5C 58.5,85.8333 58.5,87.1667 58.5,88.5C 57.1667,88.5 55.8333,88.5 54.5,88.5C 54.0632,91.8066 54.7298,94.8066 56.5,97.5C 57.6311,96.2485 58.9644,95.2485 60.5,94.5C 61.1667,94.8333 61.8333,95.1667 62.5,95.5C 60.8099,98.0237 58.6432,100.024 56,101.5C 55.5065,103.134 55.3398,104.801 55.5,106.5C 56.5,106.5 57.5,106.5 58.5,106.5C 58.5,104.833 58.5,103.167 58.5,101.5C 59.8333,101.5 61.1667,101.5 62.5,101.5C 62.8542,97.1415 64.1875,96.6415 66.5,100C 64.5708,101.694 63.5708,103.861 63.5,106.5C 64.8333,106.5 66.1667,106.5 67.5,106.5C 67.1667,103.5 68.5,102.167 71.5,102.5C 71.5,103.833 71.5,105.167 71.5,106.5C 74.9131,105.941 77.7465,104.274 80,101.5C 80.4935,99.8659 80.6602,98.1992 80.5,96.5C 79.5,96.5 78.5,96.5 77.5,96.5C 77.281,95.325 77.6143,94.325 78.5,93.5C 80.1693,94.6709 81.6693,96.0042 83,97.5C 84.6957,94.6336 87.1957,93.3002 90.5,93.5C 90.5458,89.7651 92.2125,88.4317 95.5,89.5C 95.219,91.6567 93.719,93.3234 91,94.5C 90.5172,95.448 90.3505,96.448 90.5,97.5C 92.1667,97.5 93.8333,97.5 95.5,97.5C 95.2148,99.288 95.5481,100.955 96.5,102.5C 98.5792,101.204 100.246,99.5378 101.5,97.5C 102.182,98.2427 102.849,98.9094 103.5,99.5C 103.5,104.833 103.5,110.167 103.5,115.5C 120.167,115.5 136.833,115.5 153.5,115.5C 152.632,119.97 151.299,124.304 149.5,128.5C 145.489,134.175 140.823,139.175 135.5,143.5C 127.564,146.546 119.564,149.213 111.5,151.5C 80.8925,153.388 60.5592,140.055 50.5,111.5C 47.5521,100.356 47.8854,89.3556 51.5,78.5 Z"/></g>
<g><path style="opacity:1" fill="#35a855" d="M 50.5,111.5 C 60.5592,140.055 80.8925,153.388 111.5,151.5C 120.079,150.529 128.413,148.529 136.5,145.5C 137.605,146.6 138.938,147.267 140.5,147.5C 141.129,149.997 142.796,151.33 145.5,151.5C 152.139,156.142 158.472,161.142 164.5,166.5C 153.383,176.733 140.383,183.899 125.5,188C 101.581,192.661 78.9148,189.494 57.5,178.5C 49.0514,172.663 41.2181,165.996 34,158.5C 27.7039,152.236 23.2039,144.902 20.5,136.5C 28.8596,129.816 37.5262,123.483 46.5,117.5C 48.2776,115.736 49.6109,113.736 50.5,111.5 Z"/></g>
<g><path style="opacity:1" fill="#5bad70" d="M 135.5,143.5 C 135.833,144.167 136.167,144.833 136.5,145.5C 128.413,148.529 120.079,150.529 111.5,151.5C 119.564,149.213 127.564,146.546 135.5,143.5 Z"/></g>
<g><path style="opacity:1" fill="#3f9997" d="M 140.5,147.5 C 142.389,148.604 144.055,149.937 145.5,151.5C 142.796,151.33 141.129,149.997 140.5,147.5 Z"/></g>
</svg>
