<?xml version="1.0" encoding="UTF-8"?>
<!DOCTYPE svg PUBLIC "-//W3C//DTD SVG 1.1//EN" "http://www.w3.org/Graphics/SVG/1.1/DTD/svg11.dtd">
<svg xmlns="http://www.w3.org/2000/svg" version="1.1" width="1068px" height="1068px" style="shape-rendering:geometricPrecision; text-rendering:geometricPrecision; image-rendering:optimizeQuality; fill-rule:evenodd; clip-rule:evenodd" xmlns:xlink="http://www.w3.org/1999/xlink">
<g><path style="opacity:1" fill="#757764" d="M -0.5,-0.5 C 28.1667,-0.5 56.8333,-0.5 85.5,-0.5C 87.055,5.76582 87.8883,12.0991 88,18.5C 79.2481,20.5284 70.7481,23.3617 62.5,27C 57.2762,31.2805 54.6095,36.7805 54.5,43.5C 62.8718,79.9868 72.0385,116.32 82,152.5C 82.6667,154.167 82.6667,155.833 82,157.5C 54.5316,164.934 27.0316,172.267 -0.5,179.5C -0.5,119.5 -0.5,59.5 -0.5,-0.5 Z"/></g>
<g><path style="opacity:1" fill="#8b8d77" d="M 85.5,-0.5 C 87.8333,-0.5 90.1667,-0.5 92.5,-0.5C 92.8572,3.26296 93.6905,6.92963 95,10.5C 95.6667,14.1667 95.6667,17.8333 95,21.5C 93.8333,22.6667 92.6667,23.8333 91.5,25C 83.3981,27.025 75.3981,29.3583 67.5,32C 63.4805,35.2055 61.4805,39.3722 61.5,44.5C 70.3436,80.5403 79.5103,116.54 89,152.5C 90.0229,157.952 88.1896,162.119 83.5,165C 55.4768,172.172 27.4768,179.339 -0.5,186.5C -0.5,184.167 -0.5,181.833 -0.5,179.5C 27.0316,172.267 54.5316,164.934 82,157.5C 82.6667,155.833 82.6667,154.167 82,152.5C 72.0385,116.32 62.8718,79.9868 54.5,43.5C 54.6095,36.7805 57.2762,31.2805 62.5,27C 70.7481,23.3617 79.2481,20.5284 88,18.5C 87.8883,12.0991 87.055,5.76582 85.5,-0.5 Z"/></g>
<g><path style="opacity:1" fill="#767764" d="M 92.5,-0.5 C 105.833,-0.5 119.167,-0.5 132.5,-0.5C 135.384,14.0896 139.218,28.4229 144,42.5C 147.471,46.8188 151.971,48.8188 157.5,48.5C 214.886,34.3202 272.219,19.8202 329.5,5C 332.266,3.62901 334.599,1.79568 336.5,-0.5C 347.5,-0.5 358.5,-0.5 369.5,-0.5C 375.47,22.8381 381.637,46.1714 388,69.5C 391.213,76.9424 396.879,80.9424 405,81.5C 469.179,64.9949 533.346,48.4949 597.5,32C 607.993,26.8366 610.16,19.3366 604,9.5C 599.974,6.30162 596.141,2.96829 592.5,-0.5C 606.833,-0.5 621.167,-0.5 635.5,-0.5C 634.922,10.0655 639.755,16.0655 650,17.5C 673.788,12.1787 697.288,6.17865 720.5,-0.5C 764.5,-0.5 808.5,-0.5 852.5,-0.5C 798.346,23.5434 770.012,65.3767 767.5,125C 770.304,187.789 800.971,230.456 859.5,253C 915.89,268.364 964.056,254.864 1004,212.5C 1034.14,174.325 1042.81,131.658 1030,84.5C 1016.02,44.3524 989.516,16.0191 950.5,-0.5C 979.167,-0.5 1007.83,-0.5 1036.5,-0.5C 1046.01,38.2215 1055.85,76.8882 1066,115.5C 1066.5,231.5 1066.67,347.5 1066.5,463.5C 1058.58,434.916 1040.25,416.582 1011.5,408.5C 1020.45,405.846 1029.45,403.346 1038.5,401C 1041.21,398.584 1042.87,395.584 1043.5,392C 1034.21,353.348 1024.38,314.848 1014,276.5C 1009.87,270.03 1004.04,267.863 996.5,270C 947.436,282.516 898.436,295.182 849.5,308C 815.097,321.411 798.931,346.578 801,383.5C 806.718,412.992 823.885,431.992 852.5,440.5C 853.167,440.5 853.5,440.833 853.5,441.5C 843.883,444.158 834.216,446.992 824.5,450C 821.352,452.795 819.686,456.295 819.5,460.5C 828.931,500.894 839.598,540.894 851.5,580.5C 856.684,585.643 862.684,586.809 869.5,584C 920.255,570.917 970.922,557.584 1021.5,544C 1045.86,533.376 1060.86,515.209 1066.5,489.5C 1066.67,549.501 1066.5,609.501 1066,669.5C 1064.6,663.893 1062.6,658.559 1060,653.5C 1056.46,649.874 1052.13,648.207 1047,648.5C 1028.41,652.487 1009.91,656.987 991.5,662C 985.584,665.078 982.25,669.912 981.5,676.5C 995.862,734.949 1010.7,793.283 1026,851.5C 1029.3,856.968 1034.13,859.635 1040.5,859.5C 1049.19,858.203 1057.69,856.203 1066,853.5C 1066.5,859.825 1066.67,866.158 1066.5,872.5C 1022.5,883.803 978.501,895.303 934.5,907C 901.451,922.251 886.951,948.084 891,984.5C 897.594,1013.1 915.094,1031.26 943.5,1039C 933.299,1041.4 923.299,1044.4 913.5,1048C 908.02,1053.38 907.02,1059.55 910.5,1066.5C 889.831,1066.67 869.164,1066.5 848.5,1066C 867.822,1050.5 875.988,1030.34 873,1005.5C 864.406,959.56 836.906,938.727 790.5,943C 742.865,955.492 695.198,967.825 647.5,980C 639.132,981.087 632.966,985.254 629,992.5C 628.333,995.5 628.333,998.5 629,1001.5C 634.661,1023.14 640.161,1044.81 645.5,1066.5C 636.167,1066.5 626.833,1066.5 617.5,1066.5C 614.151,1046.94 609.651,1027.61 604,1008.5C 600.786,1002.12 595.619,998.782 588.5,998.5C 530.774,1013.01 473.107,1027.85 415.5,1043C 406.732,1048.62 404.065,1056.45 407.5,1066.5C 394.167,1066.5 380.833,1066.5 367.5,1066.5C 366.694,1060.54 363.194,1057.54 357,1057.5C 345.539,1060.33 334.039,1063.16 322.5,1066C 297.169,1066.5 271.836,1066.67 246.5,1066.5C 264.961,1061.05 283.628,1055.88 302.5,1051C 307.312,1046.9 309.145,1041.73 308,1035.5C 297.905,996.285 287.738,957.118 277.5,918C 288.333,875.172 299.166,832.338 310,789.5C 312.038,777.877 307.204,772.043 295.5,772C 212.621,793.075 129.954,814.741 47.5,837C 41.8763,842.848 41.043,849.348 45,856.5C 76.3333,889.167 107.667,921.833 139,954.5C 148.678,991.544 158.511,1028.54 168.5,1065.5C 134.505,1066.67 100.505,1066.83 66.5,1066C 44.2745,1046.93 21.9411,1028.1 -0.5,1009.5C -0.5,1003.17 -0.5,996.833 -0.5,990.5C 40.2943,982.548 59.461,957.881 57,916.5C 53.6467,893.932 42.8134,876.099 24.5,863C 16.7803,858.26 8.44699,855.427 -0.5,854.5C -0.5,823.167 -0.5,791.833 -0.5,760.5C 9.57154,741.706 14.2382,721.539 13.5,700C 14.0023,679.126 9.33567,659.626 -0.5,641.5C -0.5,623.167 -0.5,604.833 -0.5,586.5C 20.4356,608.605 41.6023,630.605 63,652.5C 73.4578,691.784 83.7912,731.118 94,770.5C 96.686,778.429 102.186,781.596 110.5,780C 149.646,770.13 188.646,759.797 227.5,749C 232.152,744.464 233.652,738.964 232,732.5C 228.005,717.519 224.171,702.519 220.5,687.5C 233.152,676.588 237.319,662.921 233,646.5C 225.818,630.989 213.651,623.155 196.5,623C 202.877,621.489 209.21,619.823 215.5,618C 220.224,615.565 221.724,611.731 220,606.5C 217.382,596.155 214.882,585.822 212.5,575.5C 219.909,544.791 227.576,514.124 235.5,483.5C 232.663,471.578 225.33,467.745 213.5,472C 142.256,490.786 70.9222,509.286 -0.5,527.5C -0.5,505.5 -0.5,483.5 -0.5,461.5C 39.0767,480.631 79.0767,481.464 119.5,464C 174.649,434.081 199.816,387.581 195,324.5C 186.172,272.343 157.339,236.177 108.5,216C 71.2489,204.113 34.9155,206.28 -0.5,222.5C -0.5,210.5 -0.5,198.5 -0.5,186.5C 27.4768,179.339 55.4768,172.172 83.5,165C 88.1896,162.119 90.0229,157.952 89,152.5C 79.5103,116.54 70.3436,80.5403 61.5,44.5C 61.4805,39.3722 63.4805,35.2055 67.5,32C 75.3981,29.3583 83.3981,27.025 91.5,25C 92.6667,23.8333 93.8333,22.6667 95,21.5C 95.6667,17.8333 95.6667,14.1667 95,10.5C 93.6905,6.92963 92.8572,3.26296 92.5,-0.5 Z"/></g>
<g><path style="opacity:1" fill="#8b8d77" d="M 132.5,-0.5 C 134.833,-0.5 137.167,-0.5 139.5,-0.5C 142.22,11.931 145.387,24.2643 149,36.5C 150.664,40.0842 153.497,41.7508 157.5,41.5C 211.855,28.3695 265.855,14.3695 319.5,-0.5C 325.167,-0.5 330.833,-0.5 336.5,-0.5C 334.599,1.79568 332.266,3.62901 329.5,5C 272.219,19.8202 214.886,34.3202 157.5,48.5C 151.971,48.8188 147.471,46.8188 144,42.5C 139.218,28.4229 135.384,14.0896 132.5,-0.5 Z"/></g>
<g><path style="opacity:1" fill="#757764" d="M 139.5,-0.5 C 199.5,-0.5 259.5,-0.5 319.5,-0.5C 265.855,14.3695 211.855,28.3695 157.5,41.5C 153.497,41.7508 150.664,40.0842 149,36.5C 145.387,24.2643 142.22,11.931 139.5,-0.5 Z"/></g>
<g><path style="opacity:1" fill="#8b8d77" d="M 369.5,-0.5 C 372.167,-0.5 374.833,-0.5 377.5,-0.5C 382.863,22.6182 388.696,45.6182 395,68.5C 397.497,71.6596 400.663,73.6596 404.5,74.5C 468.182,58.1625 531.849,41.6625 595.5,25C 600.54,22.8041 601.707,19.3041 599,14.5C 593.188,9.36374 587.355,4.36374 581.5,-0.5C 585.167,-0.5 588.833,-0.5 592.5,-0.5C 596.141,2.96829 599.974,6.30162 604,9.5C 610.16,19.3366 607.993,26.8366 597.5,32C 533.346,48.4949 469.179,64.9949 405,81.5C 396.879,80.9424 391.213,76.9424 388,69.5C 381.637,46.1714 375.47,22.8381 369.5,-0.5 Z"/></g>
<g><path style="opacity:1" fill="#757764" d="M 377.5,-0.5 C 445.5,-0.5 513.5,-0.5 581.5,-0.5C 587.355,4.36374 593.188,9.36374 599,14.5C 601.707,19.3041 600.54,22.8041 595.5,25C 531.849,41.6625 468.182,58.1625 404.5,74.5C 400.663,73.6596 397.497,71.6596 395,68.5C 388.696,45.6182 382.863,22.6182 377.5,-0.5 Z"/></g>
<g><path style="opacity:1" fill="#8b8d77" d="M 635.5,-0.5 C 637.833,-0.5 640.167,-0.5 642.5,-0.5C 642.396,3.60983 643.729,7.10983 646.5,10C 662.239,8.06417 677.573,4.56417 692.5,-0.5C 701.833,-0.5 711.167,-0.5 720.5,-0.5C 697.288,6.17865 673.788,12.1787 650,17.5C 639.755,16.0655 634.922,10.0655 635.5,-0.5 Z"/></g>
<g><path style="opacity:1" fill="#757764" d="M 642.5,-0.5 C 659.167,-0.5 675.833,-0.5 692.5,-0.5C 677.573,4.56417 662.239,8.06417 646.5,10C 643.729,7.10983 642.396,3.60983 642.5,-0.5 Z"/></g>
<g><path style="opacity:1" fill="#8b8d77" d="M 852.5,-0.5 C 860.5,-0.5 868.5,-0.5 876.5,-0.5C 819.795,14.3764 785.962,50.7098 775,108.5C 770.709,172.452 797.542,217.618 855.5,244C 902.031,259.854 944.698,252.854 983.5,223C 1023.09,186.504 1036.59,142.004 1024,89.5C 1007.67,40.6614 974.504,10.6614 924.5,-0.5C 933.167,-0.5 941.833,-0.5 950.5,-0.5C 989.516,16.0191 1016.02,44.3524 1030,84.5C 1042.81,131.658 1034.14,174.325 1004,212.5C 964.056,254.864 915.89,268.364 859.5,253C 800.971,230.456 770.304,187.789 767.5,125C 770.012,65.3767 798.346,23.5434 852.5,-0.5 Z"/></g>
<g><path style="opacity:1" fill="#757764" d="M 876.5,-0.5 C 892.5,-0.5 908.5,-0.5 924.5,-0.5C 974.504,10.6614 1007.67,40.6614 1024,89.5C 1036.59,142.004 1023.09,186.504 983.5,223C 944.698,252.854 902.031,259.854 855.5,244C 797.542,217.618 770.709,172.452 775,108.5C 785.962,50.7098 819.795,14.3764 876.5,-0.5 Z"/></g>
<g><path style="opacity:1" fill="#8f917d" d="M 1036.5,-0.5 C 1038.83,-0.5 1041.17,-0.5 1043.5,-0.5C 1050.84,29.2111 1058.34,58.8777 1066,88.5C 1066.5,58.8352 1066.67,29.1685 1066.5,-0.5C 1066.83,-0.5 1067.17,-0.5 1067.5,-0.5C 1067.5,156.167 1067.5,312.833 1067.5,469.5C 1066.54,467.735 1066.21,465.735 1066.5,463.5C 1066.67,347.5 1066.5,231.5 1066,115.5C 1055.85,76.8882 1046.01,38.2215 1036.5,-0.5 Z"/></g>
<g><path style="opacity:1" fill="#757764" d="M 1043.5,-0.5 C 1051.17,-0.5 1058.83,-0.5 1066.5,-0.5C 1066.67,29.1685 1066.5,58.8352 1066,88.5C 1058.34,58.8777 1050.84,29.2111 1043.5,-0.5 Z"/></g>
<g><path style="opacity:1" fill="#8b8d77" d="M 329.5,13.5 C 339.904,12.4409 346.738,16.7742 350,26.5C 354.501,44.3417 359.001,62.175 363.5,80C 363.172,85.9878 360.505,90.6545 355.5,94C 298.559,109.152 241.559,124.152 184.5,139C 174.977,140.159 168.477,136.326 165,127.5C 160.667,110.5 156.333,93.5 152,76.5C 150.815,67.0355 154.649,60.5355 163.5,57C 219.124,43.0956 274.457,28.5956 329.5,13.5 Z"/></g>
<g><path style="opacity:1" fill="#767764" d="M 331.5,20.5 C 336.952,20.1437 340.785,22.477 343,27.5C 347.416,44.6648 351.916,61.8314 356.5,79C 356.332,82.8437 354.665,85.8437 351.5,88C 294.564,103.147 237.564,117.98 180.5,132.5C 177.421,132.2 174.921,130.867 173,128.5C 168.136,110.905 163.47,93.2385 159,75.5C 157.973,71.8201 158.806,68.6534 161.5,66C 164.993,64.2094 168.659,62.876 172.5,62C 225.723,48.4637 278.723,34.6304 331.5,20.5 Z"/></g>
<g><path style="opacity:1" fill="#8b8d77" d="M 706.5,102.5 C 715.034,101.172 721.867,103.838 727,110.5C 742.78,168.288 757.613,226.288 771.5,284.5C 771.82,292.027 768.487,297.193 761.5,300C 742.962,305.135 724.295,309.635 705.5,313.5C 697.276,313.469 692.109,309.469 690,301.5C 675.336,245.177 660.836,188.844 646.5,132.5C 646.283,124.931 649.617,119.597 656.5,116.5C 673.342,112.039 690.009,107.372 706.5,102.5 Z"/></g>
<g><path style="opacity:1" fill="#8b8d77" d="M 431.5,103.5 C 441.298,102.373 446.964,106.54 448.5,116C 437.74,160.539 426.74,205.039 415.5,249.5C 425.224,288.954 435.391,328.288 446,367.5C 447.514,375.301 444.681,380.801 437.5,384C 401.396,393.026 365.396,402.359 329.5,412C 323.146,414.484 317.146,413.984 311.5,410.5C 310.139,408.972 308.972,407.305 308,405.5C 297.821,365.785 287.488,326.119 277,286.5C 245.333,253.5 213.667,220.5 182,187.5C 177.1,176.798 180.267,169.632 191.5,166C 271.696,145.452 351.696,124.619 431.5,103.5 Z"/></g>
<g><path style="opacity:1" fill="#767764" d="M 708.5,109.5 C 715.349,108.498 719.849,111.165 722,117.5C 736.37,172.944 750.537,228.444 764.5,284C 764.799,287.735 763.466,290.735 760.5,293C 742.418,297.896 724.251,302.396 706,306.5C 702.8,306.853 700.133,305.853 698,303.5C 682.542,246.131 667.708,188.631 653.5,131C 653.869,127.61 655.535,124.943 658.5,123C 675.307,118.557 691.974,114.057 708.5,109.5 Z"/></g>
<g><path style="opacity:1" fill="#767764" d="M 432.5,110.5 C 439.327,109.825 442.16,112.825 441,119.5C 429.975,162.794 419.142,206.127 408.5,249.5C 418.995,290.813 429.162,332.147 439,373.5C 438.5,375.333 437.333,376.5 435.5,377C 398.589,386.952 361.589,396.619 324.5,406C 322.167,406.667 319.833,406.667 317.5,406C 316.333,405.5 315.5,404.667 315,403.5C 304.193,362.75 293.193,322.083 282,281.5C 250.333,248.5 218.667,215.5 187,182.5C 185.877,179.044 186.71,176.21 189.5,174C 270.715,153.281 351.715,132.114 432.5,110.5 Z"/></g>
<g><path style="opacity:1" fill="#8b8d77" d="M 617.5,125.5 C 625.883,124.61 632.383,127.61 637,134.5C 652.659,192.14 667.492,249.973 681.5,308C 681.57,314.863 678.57,319.863 672.5,323C 653.527,327.993 634.527,332.827 615.5,337.5C 607.992,337.162 602.825,333.495 600,326.5C 584.786,269.143 570.286,211.643 556.5,154C 556.794,148.09 559.46,143.423 564.5,140C 582.416,135.607 600.082,130.774 617.5,125.5 Z"/></g>
<g><path style="opacity:1" fill="#767764" d="M 618.5,132.5 C 625.794,131.419 630.294,134.419 632,141.5C 646.489,196.791 660.656,252.124 674.5,307.5C 674.651,312.033 672.651,315.2 668.5,317C 650.876,321.656 633.209,326.156 615.5,330.5C 610.661,329.828 607.494,327.161 606,322.5C 591.39,266.617 577.223,210.617 563.5,154.5C 563.686,150.467 565.686,147.634 569.5,146C 585.99,141.63 602.323,137.13 618.5,132.5 Z"/></g>
<g><path style="opacity:1" fill="#8b8d77" d="M 529.5,148.5 C 539.124,148.224 545.624,152.557 549,161.5C 561.175,209.198 573.508,256.865 586,304.5C 588.549,313.196 590.383,322.029 591.5,331C 592.053,339.225 588.386,344.559 580.5,347C 562.047,351.738 543.547,356.238 525,360.5C 517.349,359.852 512.349,355.852 510,348.5C 495.5,291.832 481,235.166 466.5,178.5C 466.71,171.232 470.043,166.066 476.5,163C 494.402,158.594 512.069,153.761 529.5,148.5 Z"/></g>
<g><path style="opacity:1" fill="#767764" d="M 529.5,155.5 C 537.109,155.27 541.609,158.936 543,166.5C 557.153,221.118 570.986,275.785 584.5,330.5C 585.141,335.394 583.141,338.561 578.5,340C 560.859,344.66 543.192,349.16 525.5,353.5C 521.004,353.169 518.17,350.836 517,346.5C 502.341,290.198 487.841,233.865 473.5,177.5C 474.142,173.719 476.142,170.885 479.5,169C 496.437,164.957 513.103,160.457 529.5,155.5 Z"/></g>
<g><path style="opacity:1" fill="#8b8d77" d="M -0.5,461.5 C -0.5,459.167 -0.5,456.833 -0.5,454.5C 40.8093,474.662 82.1426,474.496 123.5,454C 170.519,425.132 192.019,382.966 188,327.5C 178.694,269.86 145.861,233.36 89.5,218C 57.9544,211.633 27.9544,215.799 -0.5,230.5C -0.5,227.833 -0.5,225.167 -0.5,222.5C 34.9155,206.28 71.2489,204.113 108.5,216C 157.339,236.177 186.172,272.343 195,324.5C 199.816,387.581 174.649,434.081 119.5,464C 79.0767,481.464 39.0767,480.631 -0.5,461.5 Z"/></g>
<g><path style="opacity:1" fill="#757764" d="M -0.5,454.5 C -0.5,379.833 -0.5,305.167 -0.5,230.5C 27.9544,215.799 57.9544,211.633 89.5,218C 145.861,233.36 178.694,269.86 188,327.5C 192.019,382.966 170.519,425.132 123.5,454C 82.1426,474.496 40.8093,474.662 -0.5,454.5 Z"/></g>
<g><path style="opacity:1" fill="#8b8d77" d="M 1066.5,463.5 C 1066.21,465.735 1066.54,467.735 1067.5,469.5C 1067.5,474.833 1067.5,480.167 1067.5,485.5C 1066.57,486.568 1066.23,487.901 1066.5,489.5C 1060.86,515.209 1045.86,533.376 1021.5,544C 970.922,557.584 920.255,570.917 869.5,584C 862.684,586.809 856.684,585.643 851.5,580.5C 839.598,540.894 828.931,500.894 819.5,460.5C 819.686,456.295 821.352,452.795 824.5,450C 834.216,446.992 843.883,444.158 853.5,441.5C 856.364,443.023 858.031,445.357 858.5,448.5C 849.037,450.032 839.704,452.199 830.5,455C 827.797,455.865 826.464,457.699 826.5,460.5C 836.002,497.843 845.502,535.177 855,572.5C 856.122,574.624 857.622,576.457 859.5,578C 908.842,565.998 958.175,553.665 1007.5,541C 1043.56,530.272 1061.06,506.105 1060,468.5C 1049.64,428.976 1024.14,411.309 983.5,415.5C 980.908,413.974 979.908,411.641 980.5,408.5C 998.58,404.306 1016.58,399.806 1034.5,395C 1035.89,394.044 1036.56,392.711 1036.5,391C 1027.08,354.153 1017.58,317.319 1008,280.5C 1007.53,279.069 1006.7,277.903 1005.5,277C 1002.5,276.333 999.5,276.333 996.5,277C 950.21,289.156 903.876,301.156 857.5,313C 822.574,323.588 806.074,347.088 808,383.5C 808.198,385.382 808.698,387.048 809.5,388.5C 808.742,393.271 810.075,397.271 813.5,400.5C 818.794,412.759 827.46,421.759 839.5,427.5C 844.14,431.473 848.473,435.806 852.5,440.5C 823.885,431.992 806.718,412.992 801,383.5C 798.931,346.578 815.097,321.411 849.5,308C 898.436,295.182 947.436,282.516 996.5,270C 1004.04,267.863 1009.87,270.03 1014,276.5C 1024.38,314.848 1034.21,353.348 1043.5,392C 1042.87,395.584 1041.21,398.584 1038.5,401C 1029.45,403.346 1020.45,405.846 1011.5,408.5C 1040.25,416.582 1058.58,434.916 1066.5,463.5 Z"/></g>
<g><path style="opacity:1" fill="#767765" d="M 858.5,448.5 C 864.286,467.626 869.786,486.96 875,506.5C 877.251,510.126 880.418,511.293 884.5,510C 901.817,505.337 919.151,500.67 936.5,496C 942.161,494.18 944.328,490.347 943,484.5C 937.135,465.003 931.968,445.336 927.5,425.5C 932.226,404.816 937.059,384.149 942,363.5C 943.459,357.074 940.959,353.408 934.5,352.5C 895.522,363.063 856.522,373.563 817.5,384C 814.352,384.738 811.685,386.238 809.5,388.5C 808.698,387.048 808.198,385.382 808,383.5C 806.074,347.088 822.574,323.588 857.5,313C 903.876,301.156 950.21,289.156 996.5,277C 999.5,276.333 1002.5,276.333 1005.5,277C 1006.7,277.903 1007.53,279.069 1008,280.5C 1017.58,317.319 1027.08,354.153 1036.5,391C 1036.56,392.711 1035.89,394.044 1034.5,395C 1016.58,399.806 998.58,404.306 980.5,408.5C 979.908,411.641 980.908,413.974 983.5,415.5C 1024.14,411.309 1049.64,428.976 1060,468.5C 1061.06,506.105 1043.56,530.272 1007.5,541C 958.175,553.665 908.842,565.998 859.5,578C 857.622,576.457 856.122,574.624 855,572.5C 845.502,535.177 836.002,497.843 826.5,460.5C 826.464,457.699 827.797,455.865 830.5,455C 839.704,452.199 849.037,450.032 858.5,448.5 Z"/></g>
<g><path style="opacity:1" fill="#8b8d77" d="M 764.5,449.5 C 761.5,450.167 758.5,450.833 755.5,451.5C 760.192,442.398 762.859,432.731 763.5,422.5C 762.661,405.146 757.161,389.48 747,375.5C 731.461,358.486 712.294,351.986 689.5,356C 638.502,369.202 587.502,382.535 536.5,396C 535.333,397.167 534.167,398.333 533,399.5C 532.376,404.223 532.71,408.89 534,413.5C 543.396,448.899 552.896,484.232 562.5,519.5C 563.298,519.043 563.631,518.376 563.5,517.5C 564.404,518.209 564.737,519.209 564.5,520.5C 563.414,520.62 562.747,521.287 562.5,522.5C 572.771,561.479 582.938,600.479 593,639.5C 594.961,642.135 597.461,643.969 600.5,645C 665.247,629.313 729.914,612.979 794.5,596C 799.423,592.385 799.756,588.385 795.5,584C 757.5,551.333 719.5,518.667 681.5,486C 690.351,483.628 699.185,481.128 708,478.5C 709.03,478.164 709.53,477.497 709.5,476.5C 710.79,479.642 711.79,482.975 712.5,486.5C 709.527,485.476 706.527,485.643 703.5,487C 701.196,487.895 698.862,488.729 696.5,489.5C 731.346,520.178 766.513,550.511 802,580.5C 807.448,588.691 806.282,595.858 798.5,602C 734.643,618.213 670.976,634.88 607.5,652C 595.978,653.326 588.478,648.493 585,637.5C 565.344,561.542 545.677,485.542 526,409.5C 523.669,398.993 527.503,391.826 537.5,388C 586.524,375.494 635.524,362.827 684.5,350C 720.475,343.196 746.641,356.03 763,388.5C 769.304,403.667 771.304,419.334 769,435.5C 767.772,440.281 766.272,444.947 764.5,449.5 Z"/></g>
<g><path style="opacity:1" fill="#f4f4f4" d="M 858.5,448.5 C 858.031,445.357 856.364,443.023 853.5,441.5C 853.5,440.833 853.167,440.5 852.5,440.5C 848.473,435.806 844.14,431.473 839.5,427.5C 831.534,417.866 822.867,408.866 813.5,400.5C 810.075,397.271 808.742,393.271 809.5,388.5C 811.685,386.238 814.352,384.738 817.5,384C 856.522,373.563 895.522,363.063 934.5,352.5C 940.959,353.408 943.459,357.074 942,363.5C 937.059,384.149 932.226,404.816 927.5,425.5C 931.968,445.336 937.135,465.003 943,484.5C 944.328,490.347 942.161,494.18 936.5,496C 919.151,500.67 901.817,505.337 884.5,510C 880.418,511.293 877.251,510.126 875,506.5C 869.786,486.96 864.286,467.626 858.5,448.5 Z"/></g>
<g><path style="opacity:1" fill="#767765" d="M 755.5,451.5 C 740.857,455.662 726.19,459.828 711.5,464C 708.27,467.65 707.603,471.816 709.5,476.5C 709.53,477.497 709.03,478.164 708,478.5C 699.185,481.128 690.351,483.628 681.5,486C 719.5,518.667 757.5,551.333 795.5,584C 799.756,588.385 799.423,592.385 794.5,596C 729.914,612.979 665.247,629.313 600.5,645C 597.461,643.969 594.961,642.135 593,639.5C 582.938,600.479 572.771,561.479 562.5,522.5C 562.747,521.287 563.414,520.62 564.5,520.5C 570.669,542.509 576.835,564.509 583,586.5C 585.909,589.394 589.409,590.227 593.5,589C 626.776,579.797 660.11,570.797 693.5,562C 697.035,559.162 697.368,555.995 694.5,552.5C 674.5,536.833 654.5,521.167 634.5,505.5C 641.907,502.976 649.241,500.143 656.5,497C 668.564,487.826 673.397,475.659 671,460.5C 662.937,438.549 647.437,430.382 624.5,436C 600.533,442.663 576.533,449.329 552.5,456C 549.606,458.909 548.773,462.409 550,466.5C 554.97,483.379 559.47,500.379 563.5,517.5C 563.631,518.376 563.298,519.043 562.5,519.5C 552.896,484.232 543.396,448.899 534,413.5C 532.71,408.89 532.376,404.223 533,399.5C 534.167,398.333 535.333,397.167 536.5,396C 587.502,382.535 638.502,369.202 689.5,356C 712.294,351.986 731.461,358.486 747,375.5C 757.161,389.48 762.661,405.146 763.5,422.5C 762.859,432.731 760.192,442.398 755.5,451.5 Z"/></g>
<g><path style="opacity:1" fill="#8b8d77" d="M 512.5,499.5 C 508.973,496.577 505.306,493.91 501.5,491.5C 502.124,491.083 502.457,490.416 502.5,489.5C 496.272,465.532 490.105,441.532 484,417.5C 483.287,413.954 481.12,411.954 477.5,411.5C 425.749,424.695 374.082,438.195 322.5,452C 290.393,467.711 278.393,492.877 286.5,527.5C 283.557,528.367 280.557,529.367 277.5,530.5C 271.082,498.916 280.416,473.082 305.5,453C 312.327,448.587 319.66,445.254 327.5,443C 377.444,429.977 427.444,417.144 477.5,404.5C 483.724,404.691 487.89,407.691 490,413.5C 497.505,442.188 505.005,470.855 512.5,499.5 Z"/></g>
<g><path style="opacity:1" fill="#767765" d="M 501.5,491.5 C 465.337,474.501 434.837,481.501 410,512.5C 391.11,546.165 395.277,576.665 422.5,604C 445.681,621.247 470.681,624.247 497.5,613C 510.661,606.338 520.661,596.505 527.5,583.5C 531.341,588.462 533.841,594.128 535,600.5C 538.764,634.484 525.264,658.651 494.5,673C 442.402,686.899 390.235,700.399 338,713.5C 334.583,713.425 332.25,711.759 331,708.5C 327.055,693.503 323.221,678.503 319.5,663.5C 332.967,659.406 346.634,655.573 360.5,652C 363.792,649.588 364.959,646.421 364,642.5C 359.262,624.788 354.428,607.121 349.5,589.5C 349.648,586.37 350.982,583.87 353.5,582C 356.717,580.363 360.05,579.03 363.5,578C 364.333,577.167 365.167,576.333 366,575.5C 366.315,570.077 365.648,564.744 364,559.5C 360.153,545.111 356.153,530.778 352,516.5C 349.045,512.723 345.212,511.557 340.5,513C 322.56,518.141 304.56,522.975 286.5,527.5C 278.393,492.877 290.393,467.711 322.5,452C 374.082,438.195 425.749,424.695 477.5,411.5C 481.12,411.954 483.287,413.954 484,417.5C 490.105,441.532 496.272,465.532 502.5,489.5C 502.457,490.416 502.124,491.083 501.5,491.5 Z"/></g>
<g><path style="opacity:1" fill="#7b7c69" d="M 813.5,400.5 C 822.867,408.866 831.534,417.866 839.5,427.5C 827.46,421.759 818.794,412.759 813.5,400.5 Z"/></g>
<g><path style="opacity:1" fill="#f4f4f4" d="M 564.5,520.5 C 564.737,519.209 564.404,518.209 563.5,517.5C 559.47,500.379 554.97,483.379 550,466.5C 548.773,462.409 549.606,458.909 552.5,456C 576.533,449.329 600.533,442.663 624.5,436C 647.437,430.382 662.937,438.549 671,460.5C 673.397,475.659 668.564,487.826 656.5,497C 649.241,500.143 641.907,502.976 634.5,505.5C 654.5,521.167 674.5,536.833 694.5,552.5C 697.368,555.995 697.035,559.162 693.5,562C 660.11,570.797 626.776,579.797 593.5,589C 589.409,590.227 585.909,589.394 583,586.5C 576.835,564.509 570.669,542.509 564.5,520.5 Z"/></g>
<g><path style="opacity:1" fill="#f4f4f3" d="M 712.5,486.5 C 711.79,482.975 710.79,479.642 709.5,476.5C 707.603,471.816 708.27,467.65 711.5,464C 726.19,459.828 740.857,455.662 755.5,451.5C 758.5,450.833 761.5,450.167 764.5,449.5C 774.755,446.519 785.088,443.685 795.5,441C 798.303,440.245 800.97,440.578 803.5,442C 808.375,453.054 811.208,464.554 812,476.5C 811.626,477.416 811.126,478.25 810.5,479C 781.098,487.225 751.598,495.059 722,502.5C 719.333,502.833 717.333,501.833 716,499.5C 714.981,495.088 713.814,490.755 712.5,486.5 Z"/></g>
<g><path style="opacity:1" fill="#8b8d77" d="M 212.5,575.5 C 210.85,570.255 209.183,564.922 207.5,559.5C 208.586,559.38 209.253,558.713 209.5,557.5C 216.222,532.779 222.555,507.946 228.5,483C 227.7,479.262 225.367,477.429 221.5,477.5C 147.498,496.5 73.4983,515.5 -0.5,534.5C -0.5,532.167 -0.5,529.833 -0.5,527.5C 70.9222,509.286 142.256,490.786 213.5,472C 225.33,467.745 232.663,471.578 235.5,483.5C 227.576,514.124 219.909,544.791 212.5,575.5 Z"/></g>
<g><path style="opacity:1" fill="#767765" d="M 207.5,559.5 C 206.455,554.955 203.621,552.288 199,551.5C 171.681,558.455 144.515,565.955 117.5,574C 101.093,583.665 95.2593,597.832 100,616.5C 105.998,630.808 116.831,638.641 132.5,640C 125.822,642.002 119.155,644.002 112.5,646C 110.408,647.853 109.408,650.186 109.5,653C 114.097,671.554 118.93,690.054 124,708.5C 125.947,712.557 129.114,714.057 133.5,713C 157.203,706.805 180.87,700.639 204.5,694.5C 207.877,694.041 211.211,693.374 214.5,692.5C 217.841,706.195 221.341,719.862 225,733.5C 226.004,736.993 225.504,740.159 223.5,743C 185.69,753.619 147.69,763.619 109.5,773C 107.029,773.706 104.695,773.373 102.5,772C 91.2901,731.664 80.4567,691.164 70,650.5C 46.6333,625.635 23.1333,600.968 -0.5,576.5C -0.5,562.5 -0.5,548.5 -0.5,534.5C 73.4983,515.5 147.498,496.5 221.5,477.5C 225.367,477.429 227.7,479.262 228.5,483C 222.555,507.946 216.222,532.779 209.5,557.5C 209.253,558.713 208.586,559.38 207.5,559.5 Z"/></g>
<g><path style="opacity:1" fill="#f4f4f4" d="M 501.5,491.5 C 505.306,493.91 508.973,496.577 512.5,499.5C 533.717,520.014 540.384,544.68 532.5,573.5C 530.847,576.759 529.181,580.093 527.5,583.5C 520.661,596.505 510.661,606.338 497.5,613C 470.681,624.247 445.681,621.247 422.5,604C 395.277,576.665 391.11,546.165 410,512.5C 434.837,481.501 465.337,474.501 501.5,491.5 Z"/></g>
<g><path style="opacity:1" fill="#f4f4f4" d="M 319.5,663.5 C 315.627,664.134 311.961,665.134 308.5,666.5C 305.555,667.468 302.555,667.634 299.5,667C 297.667,666.5 296.5,665.333 296,663.5C 290.975,644.732 285.642,626.066 280,607.5C 278.786,605.951 277.286,604.785 275.5,604C 270.593,603.632 265.76,604.132 261,605.5C 258.019,605.919 255.686,604.919 254,602.5C 249.333,585.167 244.667,567.833 240,550.5C 238.773,546.409 239.606,542.909 242.5,540C 254.027,536.325 265.693,533.158 277.5,530.5C 280.557,529.367 283.557,528.367 286.5,527.5C 304.56,522.975 322.56,518.141 340.5,513C 345.212,511.557 349.045,512.723 352,516.5C 356.153,530.778 360.153,545.111 364,559.5C 365.648,564.744 366.315,570.077 366,575.5C 365.167,576.333 364.333,577.167 363.5,578C 360.05,579.03 356.717,580.363 353.5,582C 350.982,583.87 349.648,586.37 349.5,589.5C 354.428,607.121 359.262,624.788 364,642.5C 364.959,646.421 363.792,649.588 360.5,652C 346.634,655.573 332.967,659.406 319.5,663.5 Z"/></g>
<g><path style="opacity:1" fill="#f4f4f4" d="M 207.5,559.5 C 209.183,564.922 210.85,570.255 212.5,575.5C 214.882,585.822 217.382,596.155 220,606.5C 221.724,611.731 220.224,615.565 215.5,618C 209.21,619.823 202.877,621.489 196.5,623C 213.651,623.155 225.818,630.989 233,646.5C 237.319,662.921 233.152,676.588 220.5,687.5C 215.26,690.239 209.927,692.573 204.5,694.5C 180.87,700.639 157.203,706.805 133.5,713C 129.114,714.057 125.947,712.557 124,708.5C 118.93,690.054 114.097,671.554 109.5,653C 109.408,650.186 110.408,647.853 112.5,646C 119.155,644.002 125.822,642.002 132.5,640C 116.831,638.641 105.998,630.808 100,616.5C 95.2593,597.832 101.093,583.665 117.5,574C 144.515,565.955 171.681,558.455 199,551.5C 203.621,552.288 206.455,554.955 207.5,559.5 Z"/></g>
<g><path style="opacity:1" fill="#8b8d77" d="M -0.5,576.5 C 23.1333,600.968 46.6333,625.635 70,650.5C 80.4567,691.164 91.2901,731.664 102.5,772C 104.695,773.373 107.029,773.706 109.5,773C 147.69,763.619 185.69,753.619 223.5,743C 225.504,740.159 226.004,736.993 225,733.5C 221.341,719.862 217.841,706.195 214.5,692.5C 211.211,693.374 207.877,694.041 204.5,694.5C 209.927,692.573 215.26,690.239 220.5,687.5C 224.171,702.519 228.005,717.519 232,732.5C 233.652,738.964 232.152,744.464 227.5,749C 188.646,759.797 149.646,770.13 110.5,780C 102.186,781.596 96.686,778.429 94,770.5C 83.7912,731.118 73.4578,691.784 63,652.5C 41.6023,630.605 20.4356,608.605 -0.5,586.5C -0.5,583.167 -0.5,579.833 -0.5,576.5 Z"/></g>
<g><path style="opacity:1" fill="#8b8d77" d="M 532.5,573.5 C 534.953,579.756 537.453,586.089 540,592.5C 548.269,632.124 534.436,660.957 498.5,679C 445.016,693.621 391.35,707.454 337.5,720.5C 331.67,720.515 327.504,717.849 325,712.5C 320.845,697.215 317.012,681.881 313.5,666.5C 311.833,666.5 310.167,666.5 308.5,666.5C 311.961,665.134 315.627,664.134 319.5,663.5C 323.221,678.503 327.055,693.503 331,708.5C 332.25,711.759 334.583,713.425 338,713.5C 390.235,700.399 442.402,686.899 494.5,673C 525.264,658.651 538.764,634.484 535,600.5C 533.841,594.128 531.341,588.462 527.5,583.5C 529.181,580.093 530.847,576.759 532.5,573.5 Z"/></g>
<g><path style="opacity:1" fill="#8b8d77" d="M -0.5,641.5 C 9.33567,659.626 14.0023,679.126 13.5,700C 14.2382,721.539 9.57154,741.706 -0.5,760.5C -0.5,754.5 -0.5,748.5 -0.5,742.5C 10.1091,714.517 10.1091,686.517 -0.5,658.5C -0.5,652.833 -0.5,647.167 -0.5,641.5 Z"/></g>
<g><path style="opacity:1" fill="#8b8d77" d="M 725.5,664.5 C 783.676,660.007 828.51,682.007 860,730.5C 884.653,775.804 884.653,821.137 860,866.5C 828.817,914.84 784.317,936.673 726.5,932C 674.789,923.295 638.622,894.795 618,846.5C 599.97,791.966 610.47,743.799 649.5,702C 671.288,682.273 696.621,669.773 725.5,664.5 Z"/></g>
<g><path style="opacity:1" fill="#757764" d="M 727.5,671.5 C 781.37,667.688 823.204,688.021 853,732.5C 880.005,782.747 877.005,831.08 844,877.5C 806.4,920.251 759.9,934.418 704.5,920C 642.949,895.423 613.782,849.923 617,783.5C 625.035,733.793 652.202,698.959 698.5,679C 708.083,675.689 717.749,673.189 727.5,671.5 Z"/></g>
<g><path style="opacity:1" fill="#8b8d77" d="M 952.5,671.5 C 961.925,669.872 968.759,673.205 973,681.5C 988.453,738.857 1003.29,796.357 1017.5,854C 1016.95,860.881 1013.61,865.881 1007.5,869C 988.712,874.457 969.712,878.957 950.5,882.5C 942.221,882.066 937.054,877.733 935,869.5C 920.648,813.092 906.148,756.759 891.5,700.5C 892.098,693.132 895.765,687.965 902.5,685C 919.36,680.787 936.027,676.287 952.5,671.5 Z"/></g>
<g><path style="opacity:1" fill="#767764" d="M 953.5,678.5 C 959.59,677.137 964.09,679.137 967,684.5C 981.659,740.802 996.159,797.135 1010.5,853.5C 1010.26,857.151 1008.59,859.984 1005.5,862C 987.507,867.207 969.34,871.707 951,875.5C 946.281,875.454 943.281,873.121 942,868.5C 927.576,812.638 913.076,756.805 898.5,701C 898.518,696.653 900.518,693.653 904.5,692C 920.99,687.63 937.323,683.13 953.5,678.5 Z"/></g>
<g><path style="opacity:1" fill="#767764" d="M -0.5,658.5 C 10.1091,686.517 10.1091,714.517 -0.5,742.5C -0.5,714.5 -0.5,686.5 -0.5,658.5 Z"/></g>
<g><path style="opacity:1" fill="#8b8d77" d="M 543.5,707.5 C 551.045,705.864 556.878,708.197 561,714.5C 571.221,752.549 581.054,790.716 590.5,829C 590.543,833.211 588.877,836.545 585.5,839C 576.409,841.521 567.409,844.187 558.5,847C 596.669,858.177 615.169,883.677 614,923.5C 609.517,951.296 594.35,970.796 568.5,982C 516.606,995.974 464.606,1009.64 412.5,1023C 407.632,1024.19 403.298,1023.19 399.5,1020C 397.959,1018.42 396.792,1016.59 396,1014.5C 385.65,975.619 375.816,936.619 366.5,897.5C 366.947,892.782 369.28,889.282 373.5,887C 382.612,884.794 391.612,882.294 400.5,879.5C 362.976,867.118 345.476,841.118 348,801.5C 353.131,776.084 367.631,758.25 391.5,748C 442.311,734.466 492.978,720.966 543.5,707.5 Z"/></g>
<g><path style="opacity:1" fill="#767764" d="M 544.5,714.5 C 546.857,714.337 549.19,714.503 551.5,715C 553.333,715.5 554.5,716.667 555,718.5C 564.579,755.314 574.079,792.148 583.5,829C 583.561,830.711 582.894,832.044 581.5,833C 563.665,838.126 545.665,842.626 527.5,846.5C 527.244,848.792 527.577,850.959 528.5,853C 560.284,848.811 584.451,860.311 601,887.5C 614.865,926.238 603.698,955.404 567.5,975C 515.781,988.674 464.115,1002.34 412.5,1016C 407.232,1017.45 403.732,1015.62 402,1010.5C 392.977,974.408 383.644,938.408 374,902.5C 372.542,898.219 373.708,895.053 377.5,893C 395.738,888.024 414.071,883.524 432.5,879.5C 433.21,876.07 432.043,873.737 429,872.5C 401.691,876.739 380.024,867.739 364,845.5C 347.613,814.782 352.113,787.615 377.5,764C 382.003,760.245 387.003,757.245 392.5,755C 443.349,741.789 494.016,728.289 544.5,714.5 Z"/></g>
<g><path style="opacity:1" fill="#8b8d77" d="M 246.5,1066.5 C 236.833,1066.5 227.167,1066.5 217.5,1066.5C 244.288,1059.03 271.288,1051.87 298.5,1045C 301.29,1042.79 302.123,1039.96 301,1036.5C 290.749,996.996 280.582,957.496 270.5,918C 281.079,875.104 291.913,832.271 303,789.5C 303.667,786.833 303.667,784.167 303,781.5C 301.818,779.643 300.151,778.643 298,778.5C 217.098,799.267 136.265,820.1 55.5,841C 49.9411,842.458 48.1077,845.958 50,851.5C 81.6667,884.5 113.333,917.5 145,950.5C 155.28,989.168 165.447,1027.83 175.5,1066.5C 175.5,1066.83 175.5,1067.17 175.5,1067.5C 116.833,1067.5 58.1667,1067.5 -0.5,1067.5C -0.5,1067.17 -0.5,1066.83 -0.5,1066.5C 18.1696,1066.67 36.8363,1066.5 55.5,1066C 36.9607,1049.96 18.294,1034.12 -0.5,1018.5C -0.5,1015.5 -0.5,1012.5 -0.5,1009.5C 21.9411,1028.1 44.2745,1046.93 66.5,1066C 100.505,1066.83 134.505,1066.67 168.5,1065.5C 158.511,1028.54 148.678,991.544 139,954.5C 107.667,921.833 76.3333,889.167 45,856.5C 41.043,849.348 41.8763,842.848 47.5,837C 129.954,814.741 212.621,793.075 295.5,772C 307.204,772.043 312.038,777.877 310,789.5C 299.166,832.338 288.333,875.172 277.5,918C 287.738,957.118 297.905,996.285 308,1035.5C 309.145,1041.73 307.312,1046.9 302.5,1051C 283.628,1055.88 264.961,1061.05 246.5,1066.5 Z"/></g>
<g><path style="opacity:1" fill="#767764" d="M 217.5,1066.5 C 203.5,1066.5 189.5,1066.5 175.5,1066.5C 165.447,1027.83 155.28,989.168 145,950.5C 113.333,917.5 81.6667,884.5 50,851.5C 48.1077,845.958 49.9411,842.458 55.5,841C 136.265,820.1 217.098,799.267 298,778.5C 300.151,778.643 301.818,779.643 303,781.5C 303.667,784.167 303.667,786.833 303,789.5C 291.913,832.271 281.079,875.104 270.5,918C 280.582,957.496 290.749,996.996 301,1036.5C 302.123,1039.96 301.29,1042.79 298.5,1045C 271.288,1051.87 244.288,1059.03 217.5,1066.5 Z"/></g>
<g><path style="opacity:1" fill="#8b8d77" d="M -0.5,854.5 C 8.44699,855.427 16.7803,858.26 24.5,863C 42.8134,876.099 53.6467,893.932 57,916.5C 59.461,957.881 40.2943,982.548 -0.5,990.5C -0.5,987.833 -0.5,985.167 -0.5,982.5C 35.6503,975.849 52.4837,954.182 50,917.5C 47.1671,895.368 36.3338,878.534 17.5,867C 11.8288,864.054 5.82879,862.22 -0.5,861.5C -0.5,859.167 -0.5,856.833 -0.5,854.5 Z"/></g>
<g><path style="opacity:1" fill="#767764" d="M -0.5,861.5 C 5.82879,862.22 11.8288,864.054 17.5,867C 36.3338,878.534 47.1671,895.368 50,917.5C 52.4837,954.182 35.6503,975.849 -0.5,982.5C -0.5,942.167 -0.5,901.833 -0.5,861.5 Z"/></g>
<g><path style="opacity:1" fill="#757764" d="M 1066.5,879.5 C 1066.5,941.833 1066.5,1004.17 1066.5,1066.5C 1016.83,1066.5 967.167,1066.5 917.5,1066.5C 917.252,1063.42 916.586,1060.42 915.5,1057.5C 915.876,1055.62 916.876,1054.12 918.5,1053C 937.398,1047.69 956.398,1042.86 975.5,1038.5C 975.007,1036.19 974.674,1033.86 974.5,1031.5C 938.847,1037.32 914.013,1023.66 900,990.5C 891.646,954.042 904.479,928.209 938.5,913C 981.243,901.915 1023.91,890.749 1066.5,879.5 Z"/></g>
<g><path style="opacity:1" fill="#8c8e79" d="M 1067.5,485.5 C 1067.5,616.833 1067.5,748.167 1067.5,879.5C 1067.17,879.5 1066.83,879.5 1066.5,879.5C 1023.91,890.749 981.243,901.915 938.5,913C 904.479,928.209 891.646,954.042 900,990.5C 914.013,1023.66 938.847,1037.32 974.5,1031.5C 974.674,1033.86 975.007,1036.19 975.5,1038.5C 956.398,1042.86 937.398,1047.69 918.5,1053C 916.876,1054.12 915.876,1055.62 915.5,1057.5C 916.586,1060.42 917.252,1063.42 917.5,1066.5C 917.5,1066.83 917.5,1067.17 917.5,1067.5C 670.167,1067.5 422.833,1067.5 175.5,1067.5C 175.5,1067.17 175.5,1066.83 175.5,1066.5C 189.5,1066.5 203.5,1066.5 217.5,1066.5C 227.167,1066.5 236.833,1066.5 246.5,1066.5C 271.836,1066.67 297.169,1066.5 322.5,1066C 334.039,1063.16 345.539,1060.33 357,1057.5C 363.194,1057.54 366.694,1060.54 367.5,1066.5C 380.833,1066.5 394.167,1066.5 407.5,1066.5C 404.065,1056.45 406.732,1048.62 415.5,1043C 473.107,1027.85 530.774,1013.01 588.5,998.5C 595.619,998.782 600.786,1002.12 604,1008.5C 609.651,1027.61 614.151,1046.94 617.5,1066.5C 626.833,1066.5 636.167,1066.5 645.5,1066.5C 640.161,1044.81 634.661,1023.14 629,1001.5C 628.333,998.5 628.333,995.5 629,992.5C 632.966,985.254 639.132,981.087 647.5,980C 695.198,967.825 742.865,955.492 790.5,943C 836.906,938.727 864.406,959.56 873,1005.5C 875.988,1030.34 867.822,1050.5 848.5,1066C 869.164,1066.5 889.831,1066.67 910.5,1066.5C 907.02,1059.55 908.02,1053.38 913.5,1048C 923.299,1044.4 933.299,1041.4 943.5,1039C 915.094,1031.26 897.594,1013.1 891,984.5C 886.951,948.084 901.451,922.251 934.5,907C 978.501,895.303 1022.5,883.803 1066.5,872.5C 1066.67,866.158 1066.5,859.825 1066,853.5C 1057.69,856.203 1049.19,858.203 1040.5,859.5C 1034.13,859.635 1029.3,856.968 1026,851.5C 1010.7,793.283 995.862,734.949 981.5,676.5C 982.25,669.912 985.584,665.078 991.5,662C 1009.91,656.987 1028.41,652.487 1047,648.5C 1052.13,648.207 1056.46,649.874 1060,653.5C 1062.6,658.559 1064.6,663.893 1066,669.5C 1066.5,609.501 1066.67,549.501 1066.5,489.5C 1066.23,487.901 1066.57,486.568 1067.5,485.5 Z"/></g>
<g><path style="opacity:1" fill="#757764" d="M 1042.5,655.5 C 1047.16,654.804 1051.33,655.804 1055,658.5C 1059.13,671.355 1062.8,684.355 1066,697.5C 1066.5,747.166 1066.67,796.832 1066.5,846.5C 1057.92,848.812 1049.25,850.812 1040.5,852.5C 1036.82,852.332 1033.99,850.665 1032,847.5C 1017.11,790.733 1002.61,733.9 988.5,677C 988.909,672.521 991.242,669.521 995.5,668C 1011.41,664.275 1027.08,660.108 1042.5,655.5 Z"/></g>
<g><path style="opacity:1" fill="#767764" d="M 798.5,948.5 C 837.605,948.993 860.105,968.66 866,1007.5C 868.694,1034.29 858.194,1053.79 834.5,1066C 773.834,1066.5 713.168,1066.67 652.5,1066.5C 647.317,1044.44 641.817,1022.44 636,1000.5C 634.798,996.207 635.965,992.707 639.5,990C 692.491,975.67 745.491,961.837 798.5,948.5 Z"/></g>
<g><path style="opacity:1" fill="#767764" d="M 585.5,1005.5 C 591.347,1004.84 595.513,1007.17 598,1012.5C 601.795,1028.22 605.795,1043.88 610,1059.5C 610.497,1061.81 610.663,1064.14 610.5,1066.5C 545.167,1066.5 479.833,1066.5 414.5,1066.5C 413.669,1062.52 413.503,1058.52 414,1054.5C 414.785,1052.71 415.951,1051.21 417.5,1050C 473.645,1035.21 529.645,1020.38 585.5,1005.5 Z"/></g>
<g><path style="opacity:1" fill="#757764" d="M -0.5,1018.5 C 18.294,1034.12 36.9607,1049.96 55.5,1066C 36.8363,1066.5 18.1696,1066.67 -0.5,1066.5C -0.5,1050.5 -0.5,1034.5 -0.5,1018.5 Z"/></g>
<g><path style="opacity:1" fill="#989988" d="M 1066.5,879.5 C 1066.83,879.5 1067.17,879.5 1067.5,879.5C 1067.5,942.167 1067.5,1004.83 1067.5,1067.5C 1017.5,1067.5 967.5,1067.5 917.5,1067.5C 917.5,1067.17 917.5,1066.83 917.5,1066.5C 967.167,1066.5 1016.83,1066.5 1066.5,1066.5C 1066.5,1004.17 1066.5,941.833 1066.5,879.5 Z"/></g>
</svg>
