<?xml version="1.0" encoding="UTF-8"?>
<!DOCTYPE svg PUBLIC "-//W3C//DTD SVG 1.1//EN" "http://www.w3.org/Graphics/SVG/1.1/DTD/svg11.dtd">
<svg xmlns="http://www.w3.org/2000/svg" version="1.1" width="225px" height="225px" style="shape-rendering:geometricPrecision; text-rendering:geometricPrecision; image-rendering:optimizeQuality; fill-rule:evenodd; clip-rule:evenodd" xmlns:xlink="http://www.w3.org/1999/xlink">
<g><path style="opacity:1" fill="#e6d9e2" d="M -0.5,-0.5 C 31.5,-0.5 63.5,-0.5 95.5,-0.5C 95.5,1.16667 95.5,2.83333 95.5,4.5C 86.6843,6.06722 77.6843,7.23388 68.5,8C 64.7687,11.0542 60.4354,12.5542 55.5,12.5C 55.5,13.5 55.5,14.5 55.5,15.5C 51.8183,15.3347 48.1516,15.5014 44.5,16C 43.8333,16.6667 43.1667,17.3333 42.5,18C 38.8546,18.7189 35.1879,19.2189 31.5,19.5C 31.5,20.8333 31.5,22.1667 31.5,23.5C 24.8919,23.2587 18.3919,23.9254 12,25.5C 7.90886,24.2676 3.7422,23.6009 -0.5,23.5C -0.5,15.5 -0.5,7.5 -0.5,-0.5 Z"/></g>
<g><path style="opacity:1" fill="#f4e7ef" d="M 95.5,-0.5 C 116.833,-0.5 138.167,-0.5 159.5,-0.5C 159.665,2.51838 159.498,5.51838 159,8.5C 153.929,13.1182 148.095,16.2849 141.5,18C 134.28,19.0548 127.28,20.8882 120.5,23.5C 119.571,24.6888 119.238,26.0222 119.5,27.5C 116.089,28.3597 112.756,29.5263 109.5,31C 104.833,31.3333 100.167,31.6667 95.5,32C 82.6139,37.3939 69.2806,39.8939 55.5,39.5C 55.5,40.8333 55.5,42.1667 55.5,43.5C 44.0528,43.565 32.7195,44.7317 21.5,47C 14.1742,47.4997 6.8409,47.6663 -0.5,47.5C -0.5,39.5 -0.5,31.5 -0.5,23.5C 3.7422,23.6009 7.90886,24.2676 12,25.5C 18.3919,23.9254 24.8919,23.2587 31.5,23.5C 31.5,22.1667 31.5,20.8333 31.5,19.5C 35.1879,19.2189 38.8546,18.7189 42.5,18C 43.1667,17.3333 43.8333,16.6667 44.5,16C 48.1516,15.5014 51.8183,15.3347 55.5,15.5C 55.5,14.5 55.5,13.5 55.5,12.5C 60.4354,12.5542 64.7687,11.0542 68.5,8C 77.6843,7.23388 86.6843,6.06722 95.5,4.5C 95.5,2.83333 95.5,1.16667 95.5,-0.5 Z"/></g>
<g><path style="opacity:1" fill="#eadde5" d="M 159.5,-0.5 C 181.167,-0.5 202.833,-0.5 224.5,-0.5C 224.5,0.833333 224.5,2.16667 224.5,3.5C 221.5,3.5 218.5,3.5 215.5,3.5C 216.799,7.37049 217.466,11.3705 217.5,15.5C 210.825,14.186 207.491,16.8527 207.5,23.5C 203.154,23.3343 198.821,23.501 194.5,24C 192.261,25.9777 190.928,28.4777 190.5,31.5C 185.167,36.8333 179.833,42.1667 174.5,47.5C 170.174,51.1587 165.174,52.8254 159.5,52.5C 159.5,53.5 159.5,54.5 159.5,55.5C 146.446,58.5896 133.113,59.9229 119.5,59.5C 119.167,62.1667 118.833,64.8333 118.5,67.5C 117.5,67.5 116.5,67.5 115.5,67.5C 114.333,65.9586 113,64.6252 111.5,63.5C 109.167,63.5 106.833,63.5 104.5,63.5C 104.167,63.5 103.833,63.5 103.5,63.5C 102.77,62.2876 101.77,61.2876 100.5,60.5C 96.8333,59.1667 93.1667,59.1667 89.5,60.5C 88.5614,64.7649 88.2281,69.0983 88.5,73.5C 87.1667,73.5 85.8333,73.5 84.5,73.5C 80.2897,65.1193 74.1231,58.4526 66,53.5C 64.2509,53.7483 63.4176,54.7483 63.5,56.5C 62.8333,56.8333 62.1667,57.1667 61.5,57.5C 58.4322,58.9163 55.2655,60.2496 52,61.5C 50.7651,60.3845 49.5984,60.3845 48.5,61.5C 45.9078,64.8259 43.4078,68.1593 41,71.5C 39.6253,69.0632 39.1253,66.3965 39.5,63.5C 38.1667,63.5 36.8333,63.5 35.5,63.5C 35.3112,68.9625 34.6445,74.2959 33.5,79.5C 30.1667,79.5 26.8333,79.5 23.5,79.5C 23.5,81.1667 23.5,82.8333 23.5,84.5C 20.8333,84.5 18.1667,84.5 15.5,84.5C 15.5,85.5 15.5,86.5 15.5,87.5C 21.7291,87.5158 21.7291,88.6825 15.5,91C 10.1924,91.8303 4.85908,92.3303 -0.5,92.5C -0.5,77.5 -0.5,62.5 -0.5,47.5C 6.8409,47.6663 14.1742,47.4997 21.5,47C 32.7195,44.7317 44.0528,43.565 55.5,43.5C 55.5,42.1667 55.5,40.8333 55.5,39.5C 69.2806,39.8939 82.6139,37.3939 95.5,32C 100.167,31.6667 104.833,31.3333 109.5,31C 112.756,29.5263 116.089,28.3597 119.5,27.5C 119.238,26.0222 119.571,24.6888 120.5,23.5C 127.28,20.8882 134.28,19.0548 141.5,18C 148.095,16.2849 153.929,13.1182 159,8.5C 159.498,5.51838 159.665,2.51838 159.5,-0.5 Z"/></g>
<g><path style="opacity:1" fill="#bb8552" d="M 67.5,65.5 C 69.4409,68.6295 69.1076,71.7962 66.5,75C 66.8333,75.3333 67.1667,75.6667 67.5,76C 63.6395,76.5691 63.6395,77.4024 67.5,78.5C 66.3112,79.4287 64.9778,79.762 63.5,79.5C 63.5,83.1667 63.5,86.8333 63.5,90.5C 62.5041,90.5858 61.6708,90.2524 61,89.5C 60.3333,87.1667 60.3333,84.8333 61,82.5C 63.503,76.9049 65.6697,71.2383 67.5,65.5 Z"/></g>
<g><path style="opacity:1" fill="#f1ca7d" d="M 55.5,63.5 C 54.8902,64.391 54.5569,65.391 54.5,66.5C 52.6366,68.7053 50.3033,70.0387 47.5,70.5C 47.5,69.8333 47.5,69.1667 47.5,68.5C 50.8333,68.5 52.5,66.8333 52.5,63.5C 53.5,63.5 54.5,63.5 55.5,63.5 Z"/></g>
<g><path style="opacity:1" fill="#b3bc65" d="M 103.5,63.5 C 103.833,63.5 104.167,63.5 104.5,63.5C 103.821,65.5879 103.488,67.5879 103.5,69.5C 103.328,70.4916 103.662,71.1583 104.5,71.5C 101.719,71.9065 98.7188,71.9065 95.5,71.5C 95.3385,69.1756 94.1718,67.5089 92,66.5C 91.5045,64.5273 91.3379,62.5273 91.5,60.5C 93.8568,60.3367 96.1902,60.5034 98.5,61C 99.6174,62.8921 101.284,63.7254 103.5,63.5 Z"/></g>
<g><path style="opacity:1" fill="#ecdce7" d="M 224.5,39.5 C 224.5,60.8333 224.5,82.1667 224.5,103.5C 218.476,102.517 213.143,103.85 208.5,107.5C 207.571,108.689 207.238,110.022 207.5,111.5C 204.753,111.187 202.086,111.52 199.5,112.5C 195.023,116.648 190.023,119.982 184.5,122.5C 183.548,124.045 183.215,125.712 183.5,127.5C 180.833,127.5 178.167,127.5 175.5,127.5C 175.5,111.5 175.5,95.5 175.5,79.5C 180.833,79.5 186.167,79.5 191.5,79.5C 191.5,73.1667 191.5,66.8333 191.5,60.5C 193.937,60.2437 196.271,59.5771 198.5,58.5C 199.386,57.675 199.719,56.675 199.5,55.5C 202.511,55.1727 205.011,53.8394 207,51.5C 207.333,52.5 207.667,53.5 208,54.5C 209.879,52.4732 211.046,50.1398 211.5,47.5C 215.182,47.6653 218.848,47.4986 222.5,47C 223.123,44.3927 223.79,41.8927 224.5,39.5 Z"/></g>
<g><path style="opacity:1" fill="#906b53" d="M 84.5,73.5 C 85.3414,75.3792 85.6747,77.3792 85.5,79.5C 86.5,79.5 87.5,79.5 88.5,79.5C 88.5,80.8333 88.5,82.1667 88.5,83.5C 85.1934,83.0632 82.1934,83.7298 79.5,85.5C 78.8076,84.9747 78.3076,84.3081 78,83.5C 77.3946,85.4812 76.3946,85.8146 75,84.5C 75.0343,87.1764 75.5343,89.843 76.5,92.5C 76.1667,92.8333 75.8333,93.1667 75.5,93.5C 74.3709,90.5372 72.3709,88.3706 69.5,87C 70.2598,85.5589 70.9264,84.0589 71.5,82.5C 68.3244,81.6638 67.3244,82.8304 68.5,86C 67.9777,86.9503 67.311,87.7836 66.5,88.5C 67.9549,90.2199 68.7883,92.2199 69,94.5C 69.6708,95.2524 70.5041,95.5858 71.5,95.5C 72.262,98.4529 73.5953,101.12 75.5,103.5C 76.1667,104.833 76.8333,106.167 77.5,107.5C 78.1667,108.833 78.8333,110.167 79.5,111.5C 78.8977,115.228 77.8977,118.561 76.5,121.5C 74.684,119.882 73.3507,117.882 72.5,115.5C 71.962,113.883 71.6287,112.216 71.5,110.5C 71.637,106.404 70.137,103.071 67,100.5C 66.5065,98.8659 66.3398,97.1992 66.5,95.5C 65.5,95.5 64.5,95.5 63.5,95.5C 63.5,93.8333 63.5,92.1667 63.5,90.5C 63.5,86.8333 63.5,83.1667 63.5,79.5C 64.9778,79.762 66.3112,79.4287 67.5,78.5C 63.6395,77.4024 63.6395,76.5691 67.5,76C 67.1667,75.6667 66.8333,75.3333 66.5,75C 69.1076,71.7962 69.4409,68.6295 67.5,65.5C 68.299,62.5701 68.6323,59.5701 68.5,56.5C 66.8333,56.5 65.1667,56.5 63.5,56.5C 63.4176,54.7483 64.2509,53.7483 66,53.5C 74.1231,58.4526 80.2897,65.1193 84.5,73.5 Z"/></g>
<g><path style="opacity:1" fill="#a46c16" d="M 103.5,69.5 C 106.127,70.0916 108.794,70.4249 111.5,70.5C 111.5,71.8333 111.5,73.1667 111.5,74.5C 108.679,74.4546 106.346,73.4546 104.5,71.5C 103.662,71.1583 103.328,70.4916 103.5,69.5 Z"/></g>
<g><path style="opacity:1" fill="#cfc77e" d="M 111.5,63.5 C 113,64.6252 114.333,65.9586 115.5,67.5C 116.341,69.3792 116.675,71.3792 116.5,73.5C 119.609,73.7359 122.609,73.4025 125.5,72.5C 127.388,71.7249 129.388,71.7249 131.5,72.5C 131.833,75.5 130.5,76.8333 127.5,76.5C 122.944,74.5583 117.944,73.8917 112.5,74.5C 112.448,70.8019 112.114,67.1352 111.5,63.5 Z"/></g>
<g><path style="opacity:1" fill="#f7a921" d="M 54.5,66.5 C 56.143,66.4802 57.4763,67.1468 58.5,68.5C 60.2141,67.3915 60.8808,68.0582 60.5,70.5C 58.8561,70.2865 57.3561,70.6198 56,71.5C 55.2286,74.3464 54.3953,77.1798 53.5,80C 53.6118,83.8925 55.2785,86.8925 58.5,89C 56.1374,91.9323 55.4707,95.0989 56.5,98.5C 55.2719,97.6935 54.2719,96.6935 53.5,95.5C 52.623,90.1988 51.9564,84.8655 51.5,79.5C 50.1667,79.5 48.8333,79.5 47.5,79.5C 47.5,76.5 47.5,73.5 47.5,70.5C 50.3033,70.0387 52.6366,68.7053 54.5,66.5 Z"/></g>
<g><path style="opacity:1" fill="#d58d3f" d="M 63.5,56.5 C 65.1667,56.5 66.8333,56.5 68.5,56.5C 68.6323,59.5701 68.299,62.5701 67.5,65.5C 65.6697,71.2383 63.503,76.9049 61,82.5C 60.3333,84.8333 60.3333,87.1667 61,89.5C 61.6708,90.2524 62.5041,90.5858 63.5,90.5C 63.5,92.1667 63.5,93.8333 63.5,95.5C 62.8333,95.5 62.1667,95.5 61.5,95.5C 60.1831,90.9099 58.8498,86.2433 57.5,81.5C 58.9023,80.1575 58.5689,79.3242 56.5,79C 58.4101,77.2994 59.5768,75.1327 60,72.5C 61,71.1667 62,71.1667 63,72.5C 63.498,69.5184 63.6646,66.5184 63.5,63.5C 61.1667,63.5 58.8333,63.5 56.5,63.5C 58.1563,61.5398 59.823,59.5398 61.5,57.5C 62.1667,57.1667 62.8333,56.8333 63.5,56.5 Z"/></g>
<g><path style="opacity:1" fill="#a2a21f" d="M 104.5,63.5 C 106.833,63.5 109.167,63.5 111.5,63.5C 112.114,67.1352 112.448,70.8019 112.5,74.5C 117.944,73.8917 122.944,74.5583 127.5,76.5C 127.047,77.4584 126.381,78.2917 125.5,79C 126.094,79.4643 126.761,79.631 127.5,79.5C 127.5,79.8333 127.5,80.1667 127.5,80.5C 124.907,81.7536 122.573,83.4202 120.5,85.5C 120.167,85.1667 119.833,84.8333 119.5,84.5C 120.641,83.5745 120.641,82.7412 119.5,82C 122.723,81.0619 124.056,78.8952 123.5,75.5C 121.801,75.3398 120.134,75.5065 118.5,76C 119.711,76.8928 119.711,77.7261 118.5,78.5C 117.264,79.2458 115.93,79.5792 114.5,79.5C 113.5,78.5 112.5,77.5 111.5,76.5C 111.5,75.8333 111.5,75.1667 111.5,74.5C 111.5,73.1667 111.5,71.8333 111.5,70.5C 108.794,70.4249 106.127,70.0916 103.5,69.5C 103.488,67.5879 103.821,65.5879 104.5,63.5 Z"/></g>
<g><path style="opacity:1" fill="#858f19" d="M 127.5,80.5 C 127.5,82.5 127.5,84.5 127.5,86.5C 126.5,86.5 125.5,86.5 124.5,86.5C 122.336,86.7215 120.67,87.7215 119.5,89.5C 118.365,87.7868 116.698,87.1201 114.5,87.5C 114.5,84.8333 114.5,82.1667 114.5,79.5C 115.93,79.5792 117.264,79.2458 118.5,78.5C 119.711,77.7261 119.711,76.8928 118.5,76C 120.134,75.5065 121.801,75.3398 123.5,75.5C 124.056,78.8952 122.723,81.0619 119.5,82C 120.641,82.7412 120.641,83.5745 119.5,84.5C 119.833,84.8333 120.167,85.1667 120.5,85.5C 122.573,83.4202 124.907,81.7536 127.5,80.5 Z"/></g>
<g><path style="opacity:1" fill="#b08a4c" d="M 88.5,79.5 C 90.7812,79.0773 92.4479,79.744 93.5,81.5C 91.3431,82.0533 91.5097,83.0533 94,84.5C 94.3826,83.944 94.8826,83.6107 95.5,83.5C 95.5,85.1667 95.5,86.8333 95.5,88.5C 93.8333,87.1667 92.1667,85.8333 90.5,84.5C 89.8333,84.1667 89.1667,83.8333 88.5,83.5C 88.5,82.1667 88.5,80.8333 88.5,79.5 Z"/></g>
<g><path style="opacity:1" fill="#553207" d="M 95.5,83.5 C 94.8826,83.6107 94.3826,83.944 94,84.5C 91.5097,83.0533 91.3431,82.0533 93.5,81.5C 95.2027,80.3398 95.8693,81.0065 95.5,83.5 Z"/></g>
<g><path style="opacity:1" fill="#cfbea1" d="M 103.5,63.5 C 101.284,63.7254 99.6174,62.8921 98.5,61C 96.1902,60.5034 93.8568,60.3367 91.5,60.5C 91.3379,62.5273 91.5045,64.5273 92,66.5C 94.1718,67.5089 95.3385,69.1756 95.5,71.5C 98.7188,71.9065 101.719,71.9065 104.5,71.5C 106.346,73.4546 108.679,74.4546 111.5,74.5C 111.5,75.1667 111.5,75.8333 111.5,76.5C 109.952,76.8212 109.285,77.8212 109.5,79.5C 110.5,79.5 111.5,79.5 112.5,79.5C 112.942,81.9719 113.275,84.4719 113.5,87C 112.896,89.8868 112.229,92.7201 111.5,95.5C 110.791,96.404 109.791,96.7373 108.5,96.5C 105.482,96.7038 102.482,97.0371 99.5,97.5C 98.5447,94.289 97.2114,91.289 95.5,88.5C 95.5,86.8333 95.5,85.1667 95.5,83.5C 95.8693,81.0065 95.2027,80.3398 93.5,81.5C 92.4479,79.744 90.7812,79.0773 88.5,79.5C 87.5,79.5 86.5,79.5 85.5,79.5C 85.6747,77.3792 85.3414,75.3792 84.5,73.5C 85.8333,73.5 87.1667,73.5 88.5,73.5C 88.2281,69.0983 88.5614,64.7649 89.5,60.5C 93.1667,59.1667 96.8333,59.1667 100.5,60.5C 101.77,61.2876 102.77,62.2876 103.5,63.5 Z"/></g>
<g><path style="opacity:1" fill="#dea581" d="M 127.5,79.5 C 129.104,80.287 129.771,81.6203 129.5,83.5C 134.339,82.6766 136.673,84.6766 136.5,89.5C 135.833,89.5 135.5,89.8333 135.5,90.5C 135.167,90.5 134.833,90.5 134.5,90.5C 133.791,89.596 132.791,89.2627 131.5,89.5C 131.108,87.8211 130.608,86.1545 130,84.5C 129.751,85.624 129.251,86.624 128.5,87.5C 127.893,87.3764 127.56,87.0431 127.5,86.5C 127.5,84.5 127.5,82.5 127.5,80.5C 127.5,80.1667 127.5,79.8333 127.5,79.5 Z"/></g>
<g><path style="opacity:1" fill="#edae4c" d="M 47.5,79.5 C 48.8333,79.5 50.1667,79.5 51.5,79.5C 51.9564,84.8655 52.623,90.1988 53.5,95.5C 52.0777,89.8937 50.0777,84.5603 47.5,79.5 Z"/></g>
<g><path style="opacity:1" fill="#95501b" d="M 131.5,89.5 C 127.44,88.8482 125.44,90.5149 125.5,94.5C 124.849,93.9094 124.182,93.2427 123.5,92.5C 122.893,92.6236 122.56,92.9569 122.5,93.5C 121.624,93.6309 120.957,93.2975 120.5,92.5C 121.361,90.0894 122.694,88.0894 124.5,86.5C 125.5,86.5 126.5,86.5 127.5,86.5C 127.56,87.0431 127.893,87.3764 128.5,87.5C 129.251,86.624 129.751,85.624 130,84.5C 130.608,86.1545 131.108,87.8211 131.5,89.5 Z"/></g>
<g><path style="opacity:1" fill="#cbc38b" d="M 111.5,76.5 C 112.5,77.5 113.5,78.5 114.5,79.5C 114.5,82.1667 114.5,84.8333 114.5,87.5C 116.698,87.1201 118.365,87.7868 119.5,89.5C 119.5,91.8333 119.5,94.1667 119.5,96.5C 118.5,96.5 117.5,96.5 116.5,96.5C 115.081,95.5489 113.415,95.2155 111.5,95.5C 112.229,92.7201 112.896,89.8868 113.5,87C 113.275,84.4719 112.942,81.9719 112.5,79.5C 111.5,79.5 110.5,79.5 109.5,79.5C 109.285,77.8212 109.952,76.8212 111.5,76.5 Z"/></g>
<g><path style="opacity:1" fill="#e5dec0" d="M 143.5,88.5 C 146.195,88.933 148.362,90.2663 150,92.5C 150.82,99.0137 150.653,105.347 149.5,111.5C 149.5,110.167 149.5,108.833 149.5,107.5C 149.825,102.401 149.325,97.4012 148,92.5C 144.623,89.9874 140.79,88.9874 136.5,89.5C 136.673,84.6766 134.339,82.6766 129.5,83.5C 129.771,81.6203 129.104,80.287 127.5,79.5C 126.761,79.631 126.094,79.4643 125.5,79C 126.381,78.2917 127.047,77.4584 127.5,76.5C 130.5,76.8333 131.833,75.5 131.5,72.5C 129.388,71.7249 127.388,71.7249 125.5,72.5C 125.281,71.325 125.614,70.325 126.5,69.5C 128.642,70.6005 130.808,71.6005 133,72.5C 133.417,75.2842 132.25,77.2842 129.5,78.5C 132.525,80.6942 135.859,82.1942 139.5,83C 139.854,84.6255 139.854,86.4588 139.5,88.5C 140.833,88.5 142.167,88.5 143.5,88.5 Z"/></g>
<g><path style="opacity:1" fill="#865d37" d="M 88.5,83.5 C 89.1667,83.8333 89.8333,84.1667 90.5,84.5C 89.1938,85.4674 88.5271,86.8007 88.5,88.5C 87.6365,87.537 86.9698,87.537 86.5,88.5C 87.1272,89.4168 87.4606,90.4168 87.5,91.5C 86.3054,91.8656 85.6387,92.699 85.5,94C 87.8522,97.5376 89.5189,101.371 90.5,105.5C 85.8599,99.5744 81.6933,93.2411 78,86.5C 78.1282,88.445 77.9615,90.2784 77.5,92C 78.9308,92.4652 80.0975,93.2986 81,94.5C 81.8719,97.8556 83.3719,100.856 85.5,103.5C 84.1266,103.343 82.7932,103.51 81.5,104C 83.7463,106.498 85.7463,109.164 87.5,112C 85.1088,112.691 85.1088,113.691 87.5,115C 86.944,115.383 86.6107,115.883 86.5,116.5C 85.1266,116.657 83.7932,116.49 82.5,116C 83.756,115.583 84.4226,114.75 84.5,113.5C 84.415,111.071 83.415,109.071 81.5,107.5C 82.4439,105.863 81.7773,104.863 79.5,104.5C 79.5,104.167 79.5,103.833 79.5,103.5C 79.4422,100.336 78.7755,97.3356 77.5,94.5C 75.2776,94.822 73.4443,94.1554 72,92.5C 70.2716,93.3523 70.105,94.3523 71.5,95.5C 70.5041,95.5858 69.6708,95.2524 69,94.5C 68.7883,92.2199 67.9549,90.2199 66.5,88.5C 67.311,87.7836 67.9777,86.9503 68.5,86C 67.3244,82.8304 68.3244,81.6638 71.5,82.5C 70.9264,84.0589 70.2598,85.5589 69.5,87C 72.3709,88.3706 74.3709,90.5372 75.5,93.5C 75.8333,93.1667 76.1667,92.8333 76.5,92.5C 75.5343,89.843 75.0343,87.1764 75,84.5C 76.3946,85.8146 77.3946,85.4812 78,83.5C 78.3076,84.3081 78.8076,84.9747 79.5,85.5C 82.1934,83.7298 85.1934,83.0632 88.5,83.5 Z"/></g>
<g><path style="opacity:1" fill="#8f7b17" d="M 134.5,90.5 C 134.833,90.5 135.167,90.5 135.5,90.5C 136.167,90.5 136.5,90.8333 136.5,91.5C 134.824,92.1834 134.157,93.5168 134.5,95.5C 137.082,95.0254 139.082,95.6921 140.5,97.5C 139.417,97.4606 138.417,97.1272 137.5,96.5C 136.452,97.3829 135.285,98.0496 134,98.5C 132.826,97.4558 131.659,96.4558 130.5,95.5C 131.612,93.5808 132.946,91.9142 134.5,90.5 Z"/></g>
<g><path style="opacity:1" fill="#c39d67" d="M 90.5,105.5 C 90.9348,108.157 91.9348,110.491 93.5,112.5C 92.2073,113.645 91.0407,113.311 90,111.5C 88.2347,108.968 86.7347,106.301 85.5,103.5C 83.3719,100.856 81.8719,97.8556 81,94.5C 80.0975,93.2986 78.9308,92.4652 77.5,92C 77.9615,90.2784 78.1282,88.445 78,86.5C 81.6933,93.2411 85.8599,99.5744 90.5,105.5 Z"/></g>
<g><path style="opacity:1" fill="#a77c4c" d="M 79.5,103.5 C 78.0883,101.02 76.4216,98.6866 74.5,96.5C 74.1667,96.8333 73.8333,97.1667 73.5,97.5C 74.7472,99.323 75.4139,101.323 75.5,103.5C 73.5953,101.12 72.262,98.4529 71.5,95.5C 70.105,94.3523 70.2716,93.3523 72,92.5C 73.4443,94.1554 75.2776,94.822 77.5,94.5C 78.7755,97.3356 79.4422,100.336 79.5,103.5 Z"/></g>
<g><path style="opacity:1" fill="#d38e1e" d="M 131.5,89.5 C 132.791,89.2627 133.791,89.596 134.5,90.5C 132.946,91.9142 131.612,93.5808 130.5,95.5C 129.167,95.5 127.833,95.5 126.5,95.5C 125.833,95.5 125.5,95.1667 125.5,94.5C 125.44,90.5149 127.44,88.8482 131.5,89.5 Z"/></g>
<g><path style="opacity:1" fill="#9ba536" d="M 136.5,91.5 C 138.833,91.5 141.167,91.5 143.5,91.5C 144.413,94.078 145.746,96.4113 147.5,98.5C 146.027,97.9285 144.36,97.9285 142.5,98.5C 141.833,98.1667 141.167,97.8333 140.5,97.5C 139.082,95.6921 137.082,95.0254 134.5,95.5C 134.157,93.5168 134.824,92.1834 136.5,91.5 Z"/></g>
<g><path style="opacity:1" fill="#7f6253" d="M 90.5,84.5 C 92.1667,85.8333 93.8333,87.1667 95.5,88.5C 97.2114,91.289 98.5447,94.289 99.5,97.5C 99.5,97.8333 99.5,98.1667 99.5,98.5C 98.5386,100.265 98.2053,102.265 98.5,104.5C 97.2237,102.438 96.3903,100.104 96,97.5C 95.5172,98.448 95.3505,99.448 95.5,100.5C 93.1836,96.5402 90.8503,92.5402 88.5,88.5C 88.5271,86.8007 89.1938,85.4674 90.5,84.5 Z"/></g>
<g><path style="opacity:1" fill="#ab9279" d="M 88.5,88.5 C 90.8503,92.5402 93.1836,96.5402 95.5,100.5C 96.494,102.334 96.494,104.001 95.5,105.5C 93.3238,100.472 90.6571,95.8056 87.5,91.5C 87.4606,90.4168 87.1272,89.4168 86.5,88.5C 86.9698,87.537 87.6365,87.537 88.5,88.5 Z"/></g>
<g><path style="opacity:1" fill="#86681d" d="M 108.5,96.5 C 107.694,97.7281 106.694,98.7281 105.5,99.5C 103.983,99.5106 102.816,100.177 102,101.5C 101.667,101.167 101.333,100.833 101,100.5C 100.51,101.793 100.343,103.127 100.5,104.5C 99.5386,102.735 99.2053,100.735 99.5,98.5C 99.5,98.1667 99.5,97.8333 99.5,97.5C 102.482,97.0371 105.482,96.7038 108.5,96.5 Z"/></g>
<g><path style="opacity:1" fill="#725344" d="M 87.5,91.5 C 90.6571,95.8056 93.3238,100.472 95.5,105.5C 95.6061,108.079 94.9395,110.412 93.5,112.5C 91.9348,110.491 90.9348,108.157 90.5,105.5C 89.5189,101.371 87.8522,97.5376 85.5,94C 85.6387,92.699 86.3054,91.8656 87.5,91.5 Z"/></g>
<g><path style="opacity:1" fill="#a39315" d="M 111.5,95.5 C 113.415,95.2155 115.081,95.5489 116.5,96.5C 115.103,98.3793 113.437,100.046 111.5,101.5C 110.311,102.429 108.978,102.762 107.5,102.5C 106.833,101.5 106.167,100.5 105.5,99.5C 106.694,98.7281 107.694,97.7281 108.5,96.5C 109.791,96.7373 110.791,96.404 111.5,95.5 Z"/></g>
<g><path style="opacity:1" fill="#ddc6a1" d="M 125.5,94.5 C 125.5,95.1667 125.833,95.5 126.5,95.5C 126.389,96.1174 126.056,96.6174 125.5,97C 126.721,99.0337 128.055,100.867 129.5,102.5C 127.983,102.489 126.816,101.823 126,100.5C 126.447,102.812 127.613,104.812 129.5,106.5C 129.923,108.781 129.256,110.448 127.5,111.5C 127.727,108.562 126.727,106.229 124.5,104.5C 124.5,103.833 124.167,103.5 123.5,103.5C 122.925,101.589 121.925,99.922 120.5,98.5C 120.018,96.606 120.685,94.9393 122.5,93.5C 122.56,92.9569 122.893,92.6236 123.5,92.5C 124.182,93.2427 124.849,93.9094 125.5,94.5 Z"/></g>
<g><path style="opacity:1" fill="#c6bb84" d="M 126.5,95.5 C 127.833,95.5 129.167,95.5 130.5,95.5C 131.659,96.4558 132.826,97.4558 134,98.5C 135.285,98.0496 136.452,97.3829 137.5,96.5C 138.417,97.1272 139.417,97.4606 140.5,97.5C 141.167,97.8333 141.833,98.1667 142.5,98.5C 141.194,99.4674 140.527,100.801 140.5,102.5C 138.4,102.477 136.567,103.144 135,104.5C 133.317,102.714 131.484,102.381 129.5,103.5C 129.5,103.167 129.5,102.833 129.5,102.5C 128.055,100.867 126.721,99.0337 125.5,97C 126.056,96.6174 126.389,96.1174 126.5,95.5 Z"/></g>
<g><path style="opacity:1" fill="#2c3011" d="M 147.5,98.5 C 146.344,100.387 144.677,101.721 142.5,102.5C 141.833,102.833 141.167,103.167 140.5,103.5C 140.5,103.167 140.5,102.833 140.5,102.5C 140.527,100.801 141.194,99.4674 142.5,98.5C 144.36,97.9285 146.027,97.9285 147.5,98.5 Z"/></g>
<g><path style="opacity:1" fill="#fadda0" d="M 30.5,98.5 C 30.6287,100.216 30.962,101.883 31.5,103.5C 30.3406,102.544 29.1739,101.544 28,100.5C 26.6494,102.018 25.1494,103.351 23.5,104.5C 24.1669,100.459 26.5003,98.4592 30.5,98.5 Z"/></g>
<g><path style="opacity:1" fill="#452919" d="M 120.5,98.5 C 121.925,99.922 122.925,101.589 123.5,103.5C 121.716,103.107 120.05,102.441 118.5,101.5C 118.932,100.29 119.599,99.2905 120.5,98.5 Z"/></g>
<g><path style="opacity:1" fill="#d6ae72" d="M 79.5,103.5 C 79.5,103.833 79.5,104.167 79.5,104.5C 81.354,107.837 80.6874,108.837 77.5,107.5C 76.8333,106.167 76.1667,104.833 75.5,103.5C 75.4139,101.323 74.7472,99.323 73.5,97.5C 73.8333,97.1667 74.1667,96.8333 74.5,96.5C 76.4216,98.6866 78.0883,101.02 79.5,103.5 Z"/></g>
<g><path style="opacity:1" fill="#e8be8c" d="M 47.5,70.5 C 47.5,73.5 47.5,76.5 47.5,79.5C 50.0777,84.5603 52.0777,89.8937 53.5,95.5C 54.0444,99.1005 55.0444,102.6 56.5,106C 56.0889,107.144 55.7556,108.311 55.5,109.5C 55.2574,115.111 57.0907,119.777 61,123.5C 61.49,124.793 61.6567,126.127 61.5,127.5C 60.6391,124.96 58.9725,122.96 56.5,121.5C 55.1709,115.42 54.1709,109.42 53.5,103.5C 51.5149,97.7042 49.1816,92.0376 46.5,86.5C 44.4835,85.8257 42.8168,84.6591 41.5,83C 42.2394,79.5129 43.0728,76.0129 44,72.5C 44.8159,71.1772 45.9826,70.5106 47.5,70.5 Z"/></g>
<g><path style="opacity:1" fill="#b87022" d="M 61.5,95.5 C 62.1667,95.5 62.8333,95.5 63.5,95.5C 64.5,95.5 65.5,95.5 66.5,95.5C 66.3398,97.1992 66.5065,98.8659 67,100.5C 70.137,103.071 71.637,106.404 71.5,110.5C 68.8569,108.185 66.5236,105.518 64.5,102.5C 61.6436,101.925 59.9769,100.259 59.5,97.5C 59.7472,96.2867 60.4138,95.62 61.5,95.5 Z"/></g>
<g><path style="opacity:1" fill="#88781d" d="M 124.5,86.5 C 122.694,88.0894 121.361,90.0894 120.5,92.5C 120.957,93.2975 121.624,93.6309 122.5,93.5C 120.685,94.9393 120.018,96.606 120.5,98.5C 119.599,99.2905 118.932,100.29 118.5,101.5C 117.167,102.5 115.833,103.5 114.5,104.5C 113.391,104.557 112.391,104.89 111.5,105.5C 109.319,105.716 107.653,104.883 106.5,103C 106.728,102.601 107.062,102.435 107.5,102.5C 108.978,102.762 110.311,102.429 111.5,101.5C 113.437,100.046 115.103,98.3793 116.5,96.5C 117.5,96.5 118.5,96.5 119.5,96.5C 119.5,94.1667 119.5,91.8333 119.5,89.5C 120.67,87.7215 122.336,86.7215 124.5,86.5 Z"/></g>
<g><path style="opacity:1" fill="#dbdc9c" d="M 135.5,90.5 C 135.5,89.8333 135.833,89.5 136.5,89.5C 140.79,88.9874 144.623,89.9874 148,92.5C 149.325,97.4012 149.825,102.401 149.5,107.5C 147.811,106.069 145.811,105.236 143.5,105C 142.748,104.329 142.414,103.496 142.5,102.5C 144.677,101.721 146.344,100.387 147.5,98.5C 145.746,96.4113 144.413,94.078 143.5,91.5C 141.167,91.5 138.833,91.5 136.5,91.5C 136.5,90.8333 136.167,90.5 135.5,90.5 Z"/></g>
<g><path style="opacity:1" fill="#d0ac37" d="M 118.5,101.5 C 120.05,102.441 121.716,103.107 123.5,103.5C 124.167,103.5 124.5,103.833 124.5,104.5C 123.596,105.209 123.263,106.209 123.5,107.5C 121.143,107.663 118.81,107.497 116.5,107C 115.619,106.292 114.953,105.458 114.5,104.5C 115.833,103.5 117.167,102.5 118.5,101.5 Z"/></g>
<g><path style="opacity:1" fill="#7b603a" d="M 129.5,102.5 C 129.5,102.833 129.5,103.167 129.5,103.5C 129.5,104.5 129.5,105.5 129.5,106.5C 127.613,104.812 126.447,102.812 126,100.5C 126.816,101.823 127.983,102.489 129.5,102.5 Z"/></g>
<g><path style="opacity:1" fill="#41322f" d="M 98.5,104.5 C 99.0084,106.865 99.6751,109.199 100.5,111.5C 98.1916,111.553 95.8583,111.886 93.5,112.5C 94.9395,110.412 95.6061,108.079 95.5,105.5C 96.494,104.001 96.494,102.334 95.5,100.5C 95.3505,99.448 95.5172,98.448 96,97.5C 96.3903,100.104 97.2237,102.438 98.5,104.5 Z"/></g>
<g><path style="opacity:1" fill="#efe2e8" d="M 61.5,57.5 C 59.823,59.5398 58.1563,61.5398 56.5,63.5C 56.1667,63.5 55.8333,63.5 55.5,63.5C 54.5,63.5 53.5,63.5 52.5,63.5C 52.5,66.8333 50.8333,68.5 47.5,68.5C 42.6716,70.4815 40.6716,74.1481 41.5,79.5C 39.712,79.2148 38.0453,79.5481 36.5,80.5C 35.5771,82.9242 34.0771,84.9242 32,86.5C 31.6082,90.5276 31.1082,94.5276 30.5,98.5C 26.5003,98.4592 24.1669,100.459 23.5,104.5C 22.5448,106.746 21.8782,109.079 21.5,111.5C 20.5,111.5 19.5,111.5 18.5,111.5C 17.3454,118.321 17.1787,125.321 18,132.5C 19.1178,134.765 19.9512,137.099 20.5,139.5C 23.3176,139.657 25.3176,140.991 26.5,143.5C 26.8333,143.5 27.1667,143.5 27.5,143.5C 27.8333,145.833 29.1667,147.167 31.5,147.5C 31.5,147.833 31.5,148.167 31.5,148.5C 33.3779,149.208 35.0445,150.374 36.5,152C 38.5183,152.505 40.5183,153.005 42.5,153.5C 44.5313,153.972 46.1979,154.972 47.5,156.5C 48.8083,157.232 50.1416,158.066 51.5,159C 59.1549,160.054 66.8215,160.888 74.5,161.5C 76.3057,162.024 77.9724,162.691 79.5,163.5C 79.5,163.833 79.5,164.167 79.5,164.5C 74.29,164.074 68.9567,164.574 63.5,166C 64.6226,167.044 65.9559,167.71 67.5,168C 71.4862,168.499 75.4862,168.666 79.5,168.5C 79.5,169.5 79.5,170.5 79.5,171.5C 71.1302,171.377 62.7969,171.877 54.5,173C 54.0426,173.414 53.7093,173.914 53.5,174.5C 56.7683,175.487 60.1016,175.82 63.5,175.5C 63.5,177.833 63.5,180.167 63.5,182.5C 55.5,182.5 47.5,182.5 39.5,182.5C 39.5,183.5 39.5,184.5 39.5,185.5C 37.5,185.5 35.5,185.5 33.5,185.5C 32.8333,187.5 32.1667,189.5 31.5,191.5C 34.5,191.5 37.5,191.5 40.5,191.5C 40.5,196.833 40.5,202.167 40.5,207.5C 31.894,208.955 23.5606,210.622 15.5,212.5C 15.5,212.833 15.5,213.167 15.5,213.5C 10.3595,214.488 5.02621,214.821 -0.5,214.5C -0.5,173.833 -0.5,133.167 -0.5,92.5C 4.85908,92.3303 10.1924,91.8303 15.5,91C 21.7291,88.6825 21.7291,87.5158 15.5,87.5C 15.5,86.5 15.5,85.5 15.5,84.5C 18.1667,84.5 20.8333,84.5 23.5,84.5C 23.5,82.8333 23.5,81.1667 23.5,79.5C 26.8333,79.5 30.1667,79.5 33.5,79.5C 34.6445,74.2959 35.3112,68.9625 35.5,63.5C 36.8333,63.5 38.1667,63.5 39.5,63.5C 39.1253,66.3965 39.6253,69.0632 41,71.5C 43.4078,68.1593 45.9078,64.8259 48.5,61.5C 49.5984,60.3845 50.7651,60.3845 52,61.5C 55.2655,60.2496 58.4322,58.9163 61.5,57.5 Z"/></g>
<g><path style="opacity:1" fill="#d8c3ae" d="M 47.5,68.5 C 47.5,69.1667 47.5,69.8333 47.5,70.5C 45.9826,70.5106 44.8159,71.1772 44,72.5C 43.0728,76.0129 42.2394,79.5129 41.5,83C 42.8168,84.6591 44.4835,85.8257 46.5,86.5C 49.1816,92.0376 51.5149,97.7042 53.5,103.5C 53.1155,109.418 52.9488,115.418 53,121.5C 50.5397,122.755 49.373,124.755 49.5,127.5C 47.8235,126.817 47.1568,125.483 47.5,123.5C 45.8333,123.5 44.1667,123.5 42.5,123.5C 41.3739,120.859 40.0405,118.193 38.5,115.5C 37.4822,114.807 36.4822,114.141 35.5,113.5C 34.8166,111.824 33.4832,111.157 31.5,111.5C 31.5,110.833 31.5,110.167 31.5,109.5C 31.5,108.833 31.5,108.167 31.5,107.5C 31.5,106.167 31.5,104.833 31.5,103.5C 30.962,101.883 30.6287,100.216 30.5,98.5C 31.1082,94.5276 31.6082,90.5276 32,86.5C 34.0771,84.9242 35.5771,82.9242 36.5,80.5C 38.0453,79.5481 39.712,79.2148 41.5,79.5C 40.6716,74.1481 42.6716,70.4815 47.5,68.5 Z"/></g>
<g><path style="opacity:1" fill="#a07e54" d="M 79.5,104.5 C 81.7773,104.863 82.4439,105.863 81.5,107.5C 83.415,109.071 84.415,111.071 84.5,113.5C 83.5416,113.047 82.7083,112.381 82,111.5C 81.4598,119.399 80.6264,119.399 79.5,111.5C 78.8333,110.167 78.1667,108.833 77.5,107.5C 80.6874,108.837 81.354,107.837 79.5,104.5 Z"/></g>
<g><path style="opacity:1" fill="#dfbc76" d="M 114.5,104.5 C 114.953,105.458 115.619,106.292 116.5,107C 118.81,107.497 121.143,107.663 123.5,107.5C 123.263,106.209 123.596,105.209 124.5,104.5C 126.727,106.229 127.727,108.562 127.5,111.5C 125.874,114.078 124.208,113.912 122.5,111C 120.527,110.505 118.527,110.338 116.5,110.5C 113.237,110.326 111.57,108.659 111.5,105.5C 112.391,104.89 113.391,104.557 114.5,104.5 Z"/></g>
<g><path style="opacity:1" fill="#c8b855" d="M 140.5,102.5 C 140.5,102.833 140.5,103.167 140.5,103.5C 138.983,103.511 137.816,104.177 137,105.5C 136.505,107.473 136.338,109.473 136.5,111.5C 130.792,111.492 130.459,111.992 135.5,113C 130.536,113.912 125.536,114.412 120.5,114.5C 120.611,113.883 120.944,113.383 121.5,113C 119.825,112.015 118.158,111.181 116.5,110.5C 118.527,110.338 120.527,110.505 122.5,111C 124.208,113.912 125.874,114.078 127.5,111.5C 129.256,110.448 129.923,108.781 129.5,106.5C 129.5,105.5 129.5,104.5 129.5,103.5C 131.484,102.381 133.317,102.714 135,104.5C 136.567,103.144 138.4,102.477 140.5,102.5 Z"/></g>
<g><path style="opacity:1" fill="#efe2ea" d="M 224.5,3.5 C 224.5,15.5 224.5,27.5 224.5,39.5C 223.79,41.8927 223.123,44.3927 222.5,47C 218.848,47.4986 215.182,47.6653 211.5,47.5C 211.046,50.1398 209.879,52.4732 208,54.5C 207.667,53.5 207.333,52.5 207,51.5C 205.011,53.8394 202.511,55.1727 199.5,55.5C 199.719,56.675 199.386,57.675 198.5,58.5C 196.271,59.5771 193.937,60.2437 191.5,60.5C 191.5,66.8333 191.5,73.1667 191.5,79.5C 186.167,79.5 180.833,79.5 175.5,79.5C 175.5,95.5 175.5,111.5 175.5,127.5C 178.167,127.5 180.833,127.5 183.5,127.5C 183.215,125.712 183.548,124.045 184.5,122.5C 190.023,119.982 195.023,116.648 199.5,112.5C 202.086,111.52 204.753,111.187 207.5,111.5C 207.238,110.022 207.571,108.689 208.5,107.5C 213.143,103.85 218.476,102.517 224.5,103.5C 224.5,118.833 224.5,134.167 224.5,149.5C 222.801,149.34 221.134,149.506 219.5,150C 218.748,150.671 218.414,151.504 218.5,152.5C 216.146,152.838 213.813,153.338 211.5,154C 207.306,157.221 202.64,159.554 197.5,161C 189.536,161.544 182.203,163.878 175.5,168C 176.167,168.333 176.833,168.667 177.5,169C 174.13,171.078 170.463,171.911 166.5,171.5C 166.5,167.5 166.5,163.5 166.5,159.5C 164.076,159.808 161.743,159.474 159.5,158.5C 170.087,156.864 170.087,155.864 159.5,155.5C 159.705,150.063 159.038,144.729 157.5,139.5C 157.753,137.142 158.086,134.808 158.5,132.5C 156.097,132.393 154.264,133.393 153,135.5C 151.822,138.533 150.156,141.199 148,143.5C 146.413,142.663 145.58,141.33 145.5,139.5C 146.389,136.721 147.556,134.055 149,131.5C 149.176,128.118 149.676,124.785 150.5,121.5C 151.5,123.5 152.5,125.5 153.5,127.5C 154.495,122.208 154.828,116.875 154.5,111.5C 153.5,111.5 152.5,111.5 151.5,111.5C 151.396,106.058 152.896,105.391 156,109.5C 156.226,105.113 156.726,100.779 157.5,96.5C 156.5,95.1667 155.5,95.1667 154.5,96.5C 153.948,98.3334 153.115,100 152,101.5C 152.42,97.3856 152.087,93.3856 151,89.5C 148.442,88.0455 145.942,87.7121 143.5,88.5C 142.167,88.5 140.833,88.5 139.5,88.5C 139.854,86.4588 139.854,84.6255 139.5,83C 135.859,82.1942 132.525,80.6942 129.5,78.5C 132.25,77.2842 133.417,75.2842 133,72.5C 130.808,71.6005 128.642,70.6005 126.5,69.5C 125.614,70.325 125.281,71.325 125.5,72.5C 122.609,73.4025 119.609,73.7359 116.5,73.5C 116.675,71.3792 116.341,69.3792 115.5,67.5C 116.5,67.5 117.5,67.5 118.5,67.5C 118.833,64.8333 119.167,62.1667 119.5,59.5C 133.113,59.9229 146.446,58.5896 159.5,55.5C 159.5,54.5 159.5,53.5 159.5,52.5C 165.174,52.8254 170.174,51.1587 174.5,47.5C 179.833,42.1667 185.167,36.8333 190.5,31.5C 190.928,28.4777 192.261,25.9777 194.5,24C 198.821,23.501 203.154,23.3343 207.5,23.5C 207.491,16.8527 210.825,14.186 217.5,15.5C 217.466,11.3705 216.799,7.37049 215.5,3.5C 218.5,3.5 221.5,3.5 224.5,3.5 Z"/></g>
<g><path style="opacity:1" fill="#829217" d="M 142.5,102.5 C 142.414,103.496 142.748,104.329 143.5,105C 145.811,105.236 147.811,106.069 149.5,107.5C 149.5,108.833 149.5,110.167 149.5,111.5C 148.833,112.167 148.167,112.833 147.5,113.5C 144.502,114.159 141.668,114.492 139,114.5C 137.189,113.576 137.355,112.743 139.5,112C 138.552,111.517 137.552,111.351 136.5,111.5C 136.338,109.473 136.505,107.473 137,105.5C 137.816,104.177 138.983,103.511 140.5,103.5C 141.167,103.167 141.833,102.833 142.5,102.5 Z"/></g>
<g><path style="opacity:1" fill="#654a36" d="M 99.5,98.5 C 99.2053,100.735 99.5386,102.735 100.5,104.5C 100.925,107.447 101.925,110.114 103.5,112.5C 103.167,112.5 102.833,112.5 102.5,112.5C 100.527,113.487 98.5266,114.487 96.5,115.5C 95.1455,117.521 93.4788,119.188 91.5,120.5C 90.0369,120.635 88.8702,119.635 88,117.5C 86.9125,119.932 86.4125,119.598 86.5,116.5C 86.6107,115.883 86.944,115.383 87.5,115C 85.1088,113.691 85.1088,112.691 87.5,112C 85.7463,109.164 83.7463,106.498 81.5,104C 82.7932,103.51 84.1266,103.343 85.5,103.5C 86.7347,106.301 88.2347,108.968 90,111.5C 91.0407,113.311 92.2073,113.645 93.5,112.5C 95.8583,111.886 98.1916,111.553 100.5,111.5C 99.6751,109.199 99.0084,106.865 98.5,104.5C 98.2053,102.265 98.5386,100.265 99.5,98.5 Z"/></g>
<g><path style="opacity:1" fill="#9a941d" d="M 136.5,111.5 C 137.552,111.351 138.552,111.517 139.5,112C 137.355,112.743 137.189,113.576 139,114.5C 141.668,114.492 144.502,114.159 147.5,113.5C 147.5,115.5 147.5,117.5 147.5,119.5C 143.977,118.228 142.643,119.228 143.5,122.5C 141.876,122.64 140.71,121.973 140,120.5C 139.125,123.215 137.292,124.548 134.5,124.5C 134.389,123.883 134.056,123.383 133.5,123C 137.33,122.593 137.997,121.26 135.5,119C 137.595,118.444 137.762,117.944 136,117.5C 130.749,118.851 125.915,120.851 121.5,123.5C 120.833,123.5 120.167,123.5 119.5,123.5C 118.544,122.341 117.544,121.174 116.5,120C 117.483,117.85 118.816,116.017 120.5,114.5C 125.536,114.412 130.536,113.912 135.5,113C 130.459,111.992 130.792,111.492 136.5,111.5 Z"/></g>
<g><path style="opacity:1" fill="#e8b35b" d="M 53.5,95.5 C 54.2719,96.6935 55.2719,97.6935 56.5,98.5C 58.2783,102.565 58.9449,106.899 58.5,111.5C 60.1667,111.5 61.8333,111.5 63.5,111.5C 63.5,116.833 63.5,122.167 63.5,127.5C 62.8333,127.5 62.1667,127.5 61.5,127.5C 61.6567,126.127 61.49,124.793 61,123.5C 57.0907,119.777 55.2574,115.111 55.5,109.5C 55.7556,108.311 56.0889,107.144 56.5,106C 55.0444,102.6 54.0444,99.1005 53.5,95.5 Z"/></g>
<g><path style="opacity:1" fill="#874c08" d="M 101.5,115.5 C 102.552,115.351 103.552,115.517 104.5,116C 102.295,119.207 99.2949,121.207 95.5,122C 94.3365,124.328 92.6698,126.162 90.5,127.5C 90.3433,126.127 90.51,124.793 91,123.5C 91.6667,122.167 92.3333,122.167 93,123.5C 93.5831,121.998 94.4164,120.665 95.5,119.5C 97.9106,118.639 99.9106,117.306 101.5,115.5 Z"/></g>
<g><path style="opacity:1" fill="#cbbe55" d="M 134.5,124.5 C 132.019,123.304 132.019,121.804 134.5,120C 134.167,119.833 133.833,119.667 133.5,119.5C 129.677,121.414 125.677,122.747 121.5,123.5C 125.915,120.851 130.749,118.851 136,117.5C 137.762,117.944 137.595,118.444 135.5,119C 137.997,121.26 137.33,122.593 133.5,123C 134.056,123.383 134.389,123.883 134.5,124.5 Z"/></g>
<g><path style="opacity:1" fill="#d48118" d="M 31.5,111.5 C 33.4832,111.157 34.8166,111.824 35.5,113.5C 35.4207,116.271 35.9207,118.937 37,121.5C 38.8027,124.358 40.3027,127.358 41.5,130.5C 43.5,133.5 45.5,136.5 47.5,139.5C 42.4099,136.407 38.7432,132.074 36.5,126.5C 34.8068,125.772 33.3068,124.772 32,123.5C 31.5012,119.514 31.3345,115.514 31.5,111.5 Z"/></g>
<g><path style="opacity:1" fill="#513f37" d="M 79.5,111.5 C 80.6264,119.399 81.4598,119.399 82,111.5C 82.7083,112.381 83.5416,113.047 84.5,113.5C 84.4226,114.75 83.756,115.583 82.5,116C 83.7932,116.49 85.1266,116.657 86.5,116.5C 86.4125,119.598 86.9125,119.932 88,117.5C 88.8702,119.635 90.0369,120.635 91.5,120.5C 88.6678,125.056 86.1678,129.39 84,133.5C 82.9887,132.663 81.8221,132.33 80.5,132.5C 81.4529,128.834 80.4529,125.667 77.5,123C 78.7119,121.893 78.3786,121.393 76.5,121.5C 77.8977,118.561 78.8977,115.228 79.5,111.5 Z"/></g>
<g><path style="opacity:1" fill="#a77b4e" d="M 102.5,112.5 C 102.443,113.609 102.11,114.609 101.5,115.5C 99.9106,117.306 97.9106,118.639 95.5,119.5C 94.4164,120.665 93.5831,121.998 93,123.5C 92.3333,122.167 91.6667,122.167 91,123.5C 90.51,124.793 90.3433,126.127 90.5,127.5C 88.7531,128.981 87.5864,130.981 87,133.5C 86.1841,134.823 85.0174,135.489 83.5,135.5C 81.8102,135.144 80.8102,134.144 80.5,132.5C 81.8221,132.33 82.9887,132.663 84,133.5C 86.1678,129.39 88.6678,125.056 91.5,120.5C 93.4788,119.188 95.1455,117.521 96.5,115.5C 98.5266,114.487 100.527,113.487 102.5,112.5 Z"/></g>
<g><path style="opacity:1" fill="#f1d46e" d="M 147.5,119.5 C 147.806,122.385 147.473,125.052 146.5,127.5C 146.737,126.209 146.404,125.209 145.5,124.5C 145.5,123.167 144.833,122.5 143.5,122.5C 142.643,119.228 143.977,118.228 147.5,119.5 Z"/></g>
<g><path style="opacity:1" fill="#af871b" d="M 134.5,124.5 C 134.33,126.848 133.997,129.182 133.5,131.5C 133.437,133.514 134.103,135.181 135.5,136.5C 134.391,136.443 133.391,136.11 132.5,135.5C 132.167,134.833 131.833,134.167 131.5,133.5C 130.167,130.833 128.833,128.167 127.5,125.5C 123.844,125.497 120.511,126.497 117.5,128.5C 116.833,128.333 116.167,128.167 115.5,128C 116.699,126.306 118.032,124.806 119.5,123.5C 120.167,123.5 120.833,123.5 121.5,123.5C 125.677,122.747 129.677,121.414 133.5,119.5C 133.833,119.667 134.167,119.833 134.5,120C 132.019,121.804 132.019,123.304 134.5,124.5 Z"/></g>
<g><path style="opacity:1" fill="#fab414" d="M 31.5,103.5 C 31.5,104.833 31.5,106.167 31.5,107.5C 30.1417,106.374 28.8084,106.374 27.5,107.5C 27.4066,111.066 26.0732,114.399 23.5,117.5C 26.5735,123.461 28.2402,129.794 28.5,136.5C 31.8347,137.461 33.5014,139.794 33.5,143.5C 34.8333,143.5 36.1667,143.5 37.5,143.5C 43.7944,151.981 52.461,156.315 63.5,156.5C 62.4855,157.765 60.9855,158.431 59,158.5C 55.1912,157.678 51.3579,157.012 47.5,156.5C 46.1979,154.972 44.5313,153.972 42.5,153.5C 40.2906,152.044 37.9573,150.544 35.5,149C 34.2068,148.51 32.8734,148.343 31.5,148.5C 31.5,148.167 31.5,147.833 31.5,147.5C 30.4884,146.128 29.4884,144.795 28.5,143.5C 27.2496,137.668 24.9162,132.335 21.5,127.5C 20.3881,122.171 20.3881,116.838 21.5,111.5C 21.8782,109.079 22.5448,106.746 23.5,104.5C 25.1494,103.351 26.6494,102.018 28,100.5C 29.1739,101.544 30.3406,102.544 31.5,103.5 Z"/></g>
<g><path style="opacity:1" fill="#8c6950" d="M 76.5,121.5 C 78.3786,121.393 78.7119,121.893 77.5,123C 80.4529,125.667 81.4529,128.834 80.5,132.5C 79.2704,128.886 77.9371,125.22 76.5,121.5 Z"/></g>
<g><path style="opacity:1" fill="#f3c632" d="M 18.5,111.5 C 19.5,111.5 20.5,111.5 21.5,111.5C 20.3881,116.838 20.3881,122.171 21.5,127.5C 24.9162,132.335 27.2496,137.668 28.5,143.5C 28.1667,143.5 27.8333,143.5 27.5,143.5C 27.1667,143.5 26.8333,143.5 26.5,143.5C 26.6495,142.448 26.4828,141.448 26,140.5C 23.425,137.681 21.0917,134.681 19,131.5C 18.5004,124.842 18.3337,118.175 18.5,111.5 Z"/></g>
<g><path style="opacity:1" fill="#fca203" d="M 31.5,107.5 C 31.5,108.167 31.5,108.833 31.5,109.5C 30.0322,110.806 28.6988,112.306 27.5,114C 28.8333,116 28.8333,118 27.5,120C 28.4029,123.65 30.4029,126.483 33.5,128.5C 31.506,133.251 32.6727,136.917 37,139.5C 37.49,140.793 37.6567,142.127 37.5,143.5C 36.1667,143.5 34.8333,143.5 33.5,143.5C 33.5014,139.794 31.8347,137.461 28.5,136.5C 28.2402,129.794 26.5735,123.461 23.5,117.5C 26.0732,114.399 27.4066,111.066 27.5,107.5C 28.8084,106.374 30.1417,106.374 31.5,107.5 Z"/></g>
<g><path style="opacity:1" fill="#d8ba98" d="M 53.5,103.5 C 54.1709,109.42 55.1709,115.42 56.5,121.5C 58.9725,122.96 60.6391,124.96 61.5,127.5C 62.1667,127.5 62.8333,127.5 63.5,127.5C 63.2082,130.765 63.8749,133.765 65.5,136.5C 63.3175,140.04 60.6508,140.373 57.5,137.5C 56.8333,134.5 56.1667,131.5 55.5,128.5C 53.604,127.534 51.604,127.201 49.5,127.5C 49.373,124.755 50.5397,122.755 53,121.5C 52.9488,115.418 53.1155,109.418 53.5,103.5 Z"/></g>
<g><path style="opacity:1" fill="#a8af43" d="M 143.5,122.5 C 144.833,122.5 145.5,123.167 145.5,124.5C 143.952,124.821 143.285,125.821 143.5,127.5C 141.167,127.5 138.833,127.5 136.5,127.5C 134.576,131.295 135.242,134.461 138.5,137C 138.317,138.684 137.65,138.85 136.5,137.5C 136.5,136.833 136.167,136.5 135.5,136.5C 134.103,135.181 133.437,133.514 133.5,131.5C 133.997,129.182 134.33,126.848 134.5,124.5C 137.292,124.548 139.125,123.215 140,120.5C 140.71,121.973 141.876,122.64 143.5,122.5 Z"/></g>
<g><path style="opacity:1" fill="#f69204" d="M 31.5,109.5 C 31.5,110.167 31.5,110.833 31.5,111.5C 31.3345,115.514 31.5012,119.514 32,123.5C 33.3068,124.772 34.8068,125.772 36.5,126.5C 38.7432,132.074 42.4099,136.407 47.5,139.5C 47.5,139.833 47.5,140.167 47.5,140.5C 47.5,141.5 47.5,142.5 47.5,143.5C 49.8333,143.5 52.1667,143.5 54.5,143.5C 54.5,144.833 54.5,146.167 54.5,147.5C 56.9124,147.244 58.5791,148.244 59.5,150.5C 61.7427,151.474 64.076,151.808 66.5,151.5C 66.5,152.5 66.5,153.5 66.5,154.5C 64.8212,154.285 63.8212,154.952 63.5,156.5C 52.461,156.315 43.7944,151.981 37.5,143.5C 37.6567,142.127 37.49,140.793 37,139.5C 32.6727,136.917 31.506,133.251 33.5,128.5C 30.4029,126.483 28.4029,123.65 27.5,120C 28.8333,118 28.8333,116 27.5,114C 28.6988,112.306 30.0322,110.806 31.5,109.5 Z"/></g>
<g><path style="opacity:1" fill="#ce9548" d="M 72.5,115.5 C 73.3507,117.882 74.684,119.882 76.5,121.5C 77.9371,125.22 79.2704,128.886 80.5,132.5C 80.8102,134.144 81.8102,135.144 83.5,135.5C 82.8106,136.774 81.9772,136.774 81,135.5C 80.5357,136.094 80.369,136.761 80.5,137.5C 77.3299,130.683 74.3299,123.683 71.5,116.5C 71.6236,115.893 71.9569,115.56 72.5,115.5 Z"/></g>
<g><path style="opacity:1" fill="#da9523" d="M 105.5,99.5 C 106.167,100.5 106.833,101.5 107.5,102.5C 107.062,102.435 106.728,102.601 106.5,103C 107.653,104.883 109.319,105.716 111.5,105.5C 111.57,108.659 113.237,110.326 116.5,110.5C 118.158,111.181 119.825,112.015 121.5,113C 120.944,113.383 120.611,113.883 120.5,114.5C 118.816,116.017 117.483,117.85 116.5,120C 117.544,121.174 118.544,122.341 119.5,123.5C 118.032,124.806 116.699,126.306 115.5,128C 116.167,128.167 116.833,128.333 117.5,128.5C 120.511,126.497 123.844,125.497 127.5,125.5C 128.833,128.167 130.167,130.833 131.5,133.5C 131.167,133.5 130.833,133.5 130.5,133.5C 129.193,132.847 127.86,132.18 126.5,131.5C 125.264,132.246 123.93,132.579 122.5,132.5C 119.038,131.518 115.371,131.185 111.5,131.5C 111.041,127.927 112.041,124.927 114.5,122.5C 113.087,118.514 110.92,117.847 108,120.5C 107.821,124.025 107.321,127.359 106.5,130.5C 106.5,129.5 106.5,128.5 106.5,127.5C 103.833,127.5 101.167,127.5 98.5,127.5C 99.1834,125.824 100.517,125.157 102.5,125.5C 102.343,124.127 102.51,122.793 103,121.5C 106.443,122.392 106.943,121.558 104.5,119C 104.957,118.586 105.291,118.086 105.5,117.5C 108.173,116.568 110.839,116.402 113.5,117C 110.487,114.762 107.154,113.262 103.5,112.5C 101.925,110.114 100.925,107.447 100.5,104.5C 100.343,103.127 100.51,101.793 101,100.5C 101.333,100.833 101.667,101.167 102,101.5C 102.816,100.177 103.983,99.5106 105.5,99.5 Z"/></g>
<g><path style="opacity:1" fill="#da7f0a" d="M 122.5,132.5 C 121.828,133.267 120.995,133.934 120,134.5C 117.379,134.296 114.545,134.296 111.5,134.5C 111.665,137.518 111.498,140.518 111,143.5C 107.045,145.889 103.211,148.389 99.5,151C 98.7476,151.671 98.4142,152.504 98.5,153.5C 97.5,154.167 96.5,154.833 95.5,155.5C 95.5,156.5 95.5,157.5 95.5,158.5C 95.5,158.833 95.5,159.167 95.5,159.5C 92.8333,159.5 90.1667,159.5 87.5,159.5C 90.9311,156.408 93.9311,152.908 96.5,149C 98.9096,148.4 100.91,147.234 102.5,145.5C 106.228,145.135 108.562,143.135 109.5,139.5C 109.253,138.287 108.586,137.62 107.5,137.5C 106.448,137.649 105.448,137.483 104.5,137C 105.738,136.31 105.738,135.81 104.5,135.5C 104.402,133.447 105.069,131.78 106.5,130.5C 107.321,127.359 107.821,124.025 108,120.5C 110.92,117.847 113.087,118.514 114.5,122.5C 112.041,124.927 111.041,127.927 111.5,131.5C 115.371,131.185 119.038,131.518 122.5,132.5 Z"/></g>
<g><path style="opacity:1" fill="#dad5ac" d="M 149.5,111.5 C 149.151,117.84 148.651,124.173 148,130.5C 146.586,131.991 145.086,133.325 143.5,134.5C 144.088,131.937 145.088,129.604 146.5,127.5C 147.473,125.052 147.806,122.385 147.5,119.5C 147.5,117.5 147.5,115.5 147.5,113.5C 148.167,112.833 148.833,112.167 149.5,111.5 Z"/></g>
<g><path style="opacity:1" fill="#a8ba64" d="M 145.5,124.5 C 146.404,125.209 146.737,126.209 146.5,127.5C 145.088,129.604 144.088,131.937 143.5,134.5C 141.556,135.928 139.889,137.761 138.5,140C 137.552,140.483 136.552,140.649 135.5,140.5C 136.11,139.609 136.443,138.609 136.5,137.5C 137.65,138.85 138.317,138.684 138.5,137C 135.242,134.461 134.576,131.295 136.5,127.5C 138.833,127.5 141.167,127.5 143.5,127.5C 143.285,125.821 143.952,124.821 145.5,124.5 Z"/></g>
<g><path style="opacity:1" fill="#d79f58" d="M 98.5,127.5 C 101.167,127.5 103.833,127.5 106.5,127.5C 106.5,128.5 106.5,129.5 106.5,130.5C 105.069,131.78 104.402,133.447 104.5,135.5C 102.999,136.752 101.332,137.752 99.5,138.5C 99.631,137.761 99.4643,137.094 99,136.5C 98,137.5 97,138.5 96,139.5C 95.2119,136.228 95.7119,133.228 97.5,130.5C 98.404,129.791 98.7373,128.791 98.5,127.5 Z"/></g>
<g><path style="opacity:1" fill="#d6ac7d" d="M 35.5,113.5 C 36.4822,114.141 37.4822,114.807 38.5,115.5C 40.0405,118.193 41.3739,120.859 42.5,123.5C 44.1667,123.5 45.8333,123.5 47.5,123.5C 47.1568,125.483 47.8235,126.817 49.5,127.5C 51.604,127.201 53.604,127.534 55.5,128.5C 56.1667,131.5 56.8333,134.5 57.5,137.5C 60.6508,140.373 63.3175,140.04 65.5,136.5C 63.8749,133.765 63.2082,130.765 63.5,127.5C 66.8341,132.787 70.1674,138.121 73.5,143.5C 73.791,147.777 75.791,150.777 79.5,152.5C 79.5,153.5 79.5,154.5 79.5,155.5C 76.7628,155.599 74.0961,155.265 71.5,154.5C 69.7633,152.12 67.43,150.453 64.5,149.5C 63.5713,148.311 63.238,146.978 63.5,145.5C 61.1667,144.833 58.8333,144.167 56.5,143.5C 56.7845,141.585 56.4511,139.919 55.5,138.5C 55.67,137.178 55.3366,136.011 54.5,135C 49.6986,135.285 45.3652,133.785 41.5,130.5C 40.3027,127.358 38.8027,124.358 37,121.5C 35.9207,118.937 35.4207,116.271 35.5,113.5 Z"/></g>
<g><path style="opacity:1" fill="#bc6710" d="M 102.5,112.5 C 102.833,112.5 103.167,112.5 103.5,112.5C 107.154,113.262 110.487,114.762 113.5,117C 110.839,116.402 108.173,116.568 105.5,117.5C 105.291,118.086 104.957,118.586 104.5,119C 106.943,121.558 106.443,122.392 103,121.5C 102.51,122.793 102.343,124.127 102.5,125.5C 100.517,125.157 99.1834,125.824 98.5,127.5C 98.7373,128.791 98.404,129.791 97.5,130.5C 97.6309,129.624 97.2975,128.957 96.5,128.5C 93.4691,132.007 90.8025,135.673 88.5,139.5C 86.9397,139.519 85.4397,139.852 84,140.5C 82.8261,139.456 81.6594,138.456 80.5,137.5C 80.369,136.761 80.5357,136.094 81,135.5C 81.9772,136.774 82.8106,136.774 83.5,135.5C 85.0174,135.489 86.1841,134.823 87,133.5C 87.5864,130.981 88.7531,128.981 90.5,127.5C 92.6698,126.162 94.3365,124.328 95.5,122C 99.2949,121.207 102.295,119.207 104.5,116C 103.552,115.517 102.552,115.351 101.5,115.5C 102.11,114.609 102.443,113.609 102.5,112.5 Z"/></g>
<g><path style="opacity:1" fill="#e7931e" d="M 55.5,63.5 C 55.8333,63.5 56.1667,63.5 56.5,63.5C 58.8333,63.5 61.1667,63.5 63.5,63.5C 63.6646,66.5184 63.498,69.5184 63,72.5C 62,71.1667 61,71.1667 60,72.5C 59.5768,75.1327 58.4101,77.2994 56.5,79C 58.5689,79.3242 58.9023,80.1575 57.5,81.5C 58.8498,86.2433 60.1831,90.9099 61.5,95.5C 60.4138,95.62 59.7472,96.2867 59.5,97.5C 59.9769,100.259 61.6436,101.925 64.5,102.5C 66.5236,105.518 68.8569,108.185 71.5,110.5C 71.6287,112.216 71.962,113.883 72.5,115.5C 71.9569,115.56 71.6236,115.893 71.5,116.5C 74.3299,123.683 77.3299,130.683 80.5,137.5C 81.6594,138.456 82.8261,139.456 84,140.5C 85.4397,139.852 86.9397,139.519 88.5,139.5C 90.8025,135.673 93.4691,132.007 96.5,128.5C 97.2975,128.957 97.6309,129.624 97.5,130.5C 95.7119,133.228 95.2119,136.228 96,139.5C 97,138.5 98,137.5 99,136.5C 99.4643,137.094 99.631,137.761 99.5,138.5C 96.2039,142.298 92.7039,145.964 89,149.5C 87.4412,151.217 86.6079,153.217 86.5,155.5C 84.1667,155.5 81.8333,155.5 79.5,155.5C 79.5,154.5 79.5,153.5 79.5,152.5C 79.5,151.5 79.5,150.5 79.5,149.5C 78.5,149.5 77.5,149.5 76.5,149.5C 76.5,147.5 76.5,145.5 76.5,143.5C 75.5,143.5 74.5,143.5 73.5,143.5C 70.1674,138.121 66.8341,132.787 63.5,127.5C 63.5,122.167 63.5,116.833 63.5,111.5C 61.8333,111.5 60.1667,111.5 58.5,111.5C 58.9449,106.899 58.2783,102.565 56.5,98.5C 55.4707,95.0989 56.1374,91.9323 58.5,89C 55.2785,86.8925 53.6118,83.8925 53.5,80C 54.3953,77.1798 55.2286,74.3464 56,71.5C 57.3561,70.6198 58.8561,70.2865 60.5,70.5C 60.8808,68.0582 60.2141,67.3915 58.5,68.5C 57.4763,67.1468 56.143,66.4802 54.5,66.5C 54.5569,65.391 54.8902,64.391 55.5,63.5 Z"/></g>
<g><path style="opacity:1" fill="#fae0b8" d="M 18.5,111.5 C 18.3337,118.175 18.5004,124.842 19,131.5C 21.0917,134.681 23.425,137.681 26,140.5C 26.4828,141.448 26.6495,142.448 26.5,143.5C 25.3176,140.991 23.3176,139.657 20.5,139.5C 19.9512,137.099 19.1178,134.765 18,132.5C 17.1787,125.321 17.3454,118.321 18.5,111.5 Z"/></g>
<g><path style="opacity:1" fill="#a76017" d="M 41.5,130.5 C 45.3652,133.785 49.6986,135.285 54.5,135C 55.3366,136.011 55.67,137.178 55.5,138.5C 55.5,139.833 55.5,141.167 55.5,142.5C 52.9963,141.361 50.3297,140.694 47.5,140.5C 47.5,140.167 47.5,139.833 47.5,139.5C 45.5,136.5 43.5,133.5 41.5,130.5 Z"/></g>
<g><path style="opacity:1" fill="#f3ba23" d="M 132.5,135.5 C 133.391,136.11 134.391,136.443 135.5,136.5C 136.167,136.5 136.5,136.833 136.5,137.5C 136.443,138.609 136.11,139.609 135.5,140.5C 133.311,142.507 130.645,143.507 127.5,143.5C 129.409,141.025 131.076,138.359 132.5,135.5 Z"/></g>
<g><path style="opacity:1" fill="#f8c68f" d="M 107.5,137.5 C 108.586,137.62 109.253,138.287 109.5,139.5C 108.562,143.135 106.228,145.135 102.5,145.5C 101.769,145.058 100.769,144.891 99.5,145C 102.062,142.267 104.729,139.767 107.5,137.5 Z"/></g>
<g><path style="opacity:1" fill="#fbdf90" d="M 27.5,143.5 C 27.8333,143.5 28.1667,143.5 28.5,143.5C 29.4884,144.795 30.4884,146.128 31.5,147.5C 29.1667,147.167 27.8333,145.833 27.5,143.5 Z"/></g>
<g><path style="opacity:1" fill="#bf781e" d="M 55.5,138.5 C 56.4511,139.919 56.7845,141.585 56.5,143.5C 58.8333,144.167 61.1667,144.833 63.5,145.5C 63.238,146.978 63.5713,148.311 64.5,149.5C 67.43,150.453 69.7633,152.12 71.5,154.5C 72.8333,155.5 72.8333,156.5 71.5,157.5C 68.8333,157.167 66.1667,156.833 63.5,156.5C 63.8212,154.952 64.8212,154.285 66.5,154.5C 66.5,153.5 66.5,152.5 66.5,151.5C 64.076,151.808 61.7427,151.474 59.5,150.5C 58.5791,148.244 56.9124,147.244 54.5,147.5C 54.5,146.167 54.5,144.833 54.5,143.5C 52.1667,143.5 49.8333,143.5 47.5,143.5C 47.5,142.5 47.5,141.5 47.5,140.5C 50.3297,140.694 52.9963,141.361 55.5,142.5C 55.5,141.167 55.5,139.833 55.5,138.5 Z"/></g>
<g><path style="opacity:1" fill="#fcde92" d="M 31.5,148.5 C 32.8734,148.343 34.2068,148.51 35.5,149C 37.9573,150.544 40.2906,152.044 42.5,153.5C 40.5183,153.005 38.5183,152.505 36.5,152C 35.0445,150.374 33.3779,149.208 31.5,148.5 Z"/></g>
<g><path style="opacity:1" fill="#f99306" d="M 130.5,133.5 C 130.785,135.288 130.452,136.955 129.5,138.5C 124.806,141.571 119.806,144.071 114.5,146C 113.167,146.667 113.167,147.333 114.5,148C 111.554,148.806 108.888,150.139 106.5,152C 103.832,152.567 101.166,153.067 98.5,153.5C 98.4142,152.504 98.7476,151.671 99.5,151C 103.211,148.389 107.045,145.889 111,143.5C 111.498,140.518 111.665,137.518 111.5,134.5C 114.545,134.296 117.379,134.296 120,134.5C 120.995,133.934 121.828,133.267 122.5,132.5C 123.93,132.579 125.264,132.246 126.5,131.5C 127.86,132.18 129.193,132.847 130.5,133.5 Z"/></g>
<g><path style="opacity:1" fill="#e1a54f" d="M 73.5,143.5 C 74.5,143.5 75.5,143.5 76.5,143.5C 76.5,145.5 76.5,147.5 76.5,149.5C 77.5,149.5 78.5,149.5 79.5,149.5C 79.5,150.5 79.5,151.5 79.5,152.5C 75.791,150.777 73.791,147.777 73.5,143.5 Z"/></g>
<g><path style="opacity:1" fill="#fda605" d="M 130.5,133.5 C 130.833,133.5 131.167,133.5 131.5,133.5C 131.833,134.167 132.167,134.833 132.5,135.5C 131.076,138.359 129.409,141.025 127.5,143.5C 127.5,144.167 127.5,144.833 127.5,145.5C 124.09,145.457 120.757,145.957 117.5,147C 111.416,152.868 104.083,155.702 95.5,155.5C 96.5,154.833 97.5,154.167 98.5,153.5C 101.166,153.067 103.832,152.567 106.5,152C 108.888,150.139 111.554,148.806 114.5,148C 113.167,147.333 113.167,146.667 114.5,146C 119.806,144.071 124.806,141.571 129.5,138.5C 130.452,136.955 130.785,135.288 130.5,133.5 Z"/></g>
<g><path style="opacity:1" fill="#f5bc2e" d="M 127.5,145.5 C 127.5,146.167 127.5,146.833 127.5,147.5C 121.97,149.452 116.637,151.785 111.5,154.5C 106.118,155.627 100.784,156.961 95.5,158.5C 95.5,157.5 95.5,156.5 95.5,155.5C 104.083,155.702 111.416,152.868 117.5,147C 120.757,145.957 124.09,145.457 127.5,145.5 Z"/></g>
<g><path style="opacity:1" fill="#f7e8cc" d="M 127.5,147.5 C 125.572,149.474 123.239,150.974 120.5,152C 119.257,153.154 118.257,154.488 117.5,156C 112.41,156.427 107.41,157.26 102.5,158.5C 105.5,157.167 108.5,155.833 111.5,154.5C 116.637,151.785 121.97,149.452 127.5,147.5 Z"/></g>
<g><path style="opacity:1" fill="#9c540c" d="M 104.5,135.5 C 105.738,135.81 105.738,136.31 104.5,137C 105.448,137.483 106.448,137.649 107.5,137.5C 104.729,139.767 102.062,142.267 99.5,145C 100.769,144.891 101.769,145.058 102.5,145.5C 100.91,147.234 98.9096,148.4 96.5,149C 93.9311,152.908 90.9311,156.408 87.5,159.5C 83.1434,159.586 78.81,159.92 74.5,160.5C 72.5856,159.815 70.5856,159.315 68.5,159C 69.7375,158.768 70.7375,158.268 71.5,157.5C 72.8333,156.5 72.8333,155.5 71.5,154.5C 74.0961,155.265 76.7628,155.599 79.5,155.5C 81.8333,155.5 84.1667,155.5 86.5,155.5C 86.6079,153.217 87.4412,151.217 89,149.5C 92.7039,145.964 96.2039,142.298 99.5,138.5C 101.332,137.752 102.999,136.752 104.5,135.5 Z"/></g>
<g><path style="opacity:1" fill="#fddb89" d="M 111.5,154.5 C 108.5,155.833 105.5,157.167 102.5,158.5C 100.236,159.219 97.9029,159.552 95.5,159.5C 95.5,159.167 95.5,158.833 95.5,158.5C 100.784,156.961 106.118,155.627 111.5,154.5 Z"/></g>
<g><path style="opacity:1" fill="#edcd77" d="M 47.5,156.5 C 51.3579,157.012 55.1912,157.678 59,158.5C 60.9855,158.431 62.4855,157.765 63.5,156.5C 66.1667,156.833 68.8333,157.167 71.5,157.5C 70.7375,158.268 69.7375,158.768 68.5,159C 70.5856,159.315 72.5856,159.815 74.5,160.5C 74.5,160.833 74.5,161.167 74.5,161.5C 66.8215,160.888 59.1549,160.054 51.5,159C 50.1416,158.066 48.8083,157.232 47.5,156.5 Z"/></g>
<g><path style="opacity:1" fill="#a7773f" d="M 87.5,159.5 C 85.7032,162.36 83.0366,163.693 79.5,163.5C 77.9724,162.691 76.3057,162.024 74.5,161.5C 74.5,161.167 74.5,160.833 74.5,160.5C 78.81,159.92 83.1434,159.586 87.5,159.5 Z"/></g>
<g><path style="opacity:1" fill="#dcc6a7" d="M 87.5,159.5 C 90.1667,159.5 92.8333,159.5 95.5,159.5C 91.0805,163.341 85.7471,165.007 79.5,164.5C 79.5,164.167 79.5,163.833 79.5,163.5C 83.0366,163.693 85.7032,162.36 87.5,159.5 Z"/></g>
<g><path style="opacity:1" fill="#413e4b" d="M 224.5,153.5 C 224.5,169.833 224.5,186.167 224.5,202.5C 223.596,201.791 223.263,200.791 223.5,199.5C 219.647,198.655 216.981,196.321 215.5,192.5C 218.086,191.52 220.753,191.187 223.5,191.5C 223.297,189.362 222.297,187.695 220.5,186.5C 218.807,185.772 217.307,184.772 216,183.5C 215.617,184.056 215.117,184.389 214.5,184.5C 213.194,183.533 212.527,182.199 212.5,180.5C 210.409,180.318 208.409,180.652 206.5,181.5C 203.726,177.896 204.726,175.896 209.5,175.5C 211.535,176.204 213.535,176.871 215.5,177.5C 215.64,175.876 214.973,174.71 213.5,174C 217.02,173.327 220.353,172.16 223.5,170.5C 223,170.167 222.5,169.833 222,169.5C 216.561,171.235 211.061,172.735 205.5,174C 202.562,176.898 200.729,180.398 200,184.5C 198.246,182.75 196.079,182.083 193.5,182.5C 193.116,180.071 192.449,177.737 191.5,175.5C 194.187,175.664 196.854,175.497 199.5,175C 198.5,174.667 197.5,174.333 196.5,174C 197.841,172.705 199.174,172.205 200.5,172.5C 199.833,171.833 199.167,171.167 198.5,170.5C 199.653,169.313 199.653,168.313 198.5,167.5C 206.955,162.663 215.622,157.996 224.5,153.5 Z"/></g>
<g><path style="opacity:1" fill="#ebe2e3" d="M 143.5,88.5 C 145.942,87.7121 148.442,88.0455 151,89.5C 152.087,93.3856 152.42,97.3856 152,101.5C 153.115,100 153.948,98.3334 154.5,96.5C 155.5,95.1667 156.5,95.1667 157.5,96.5C 156.726,100.779 156.226,105.113 156,109.5C 152.896,105.391 151.396,106.058 151.5,111.5C 152.5,111.5 153.5,111.5 154.5,111.5C 154.828,116.875 154.495,122.208 153.5,127.5C 152.5,125.5 151.5,123.5 150.5,121.5C 149.676,124.785 149.176,128.118 149,131.5C 147.556,134.055 146.389,136.721 145.5,139.5C 145.58,141.33 146.413,142.663 148,143.5C 150.156,141.199 151.822,138.533 153,135.5C 154.264,133.393 156.097,132.393 158.5,132.5C 158.086,134.808 157.753,137.142 157.5,139.5C 159.038,144.729 159.705,150.063 159.5,155.5C 170.087,155.864 170.087,156.864 159.5,158.5C 161.743,159.474 164.076,159.808 166.5,159.5C 166.5,163.5 166.5,167.5 166.5,171.5C 165.038,172.458 163.705,173.624 162.5,175C 155.239,177.331 147.906,179.665 140.5,182C 135.417,185.357 129.751,187.024 123.5,187C 117.939,190.869 111.772,193.369 105,194.5C 103.97,194.836 103.47,195.503 103.5,196.5C 101.5,196.833 99.5,197.167 97.5,197.5C 91.2063,198.826 84.873,200.159 78.5,201.5C 77.5,201.333 76.5,201.167 75.5,201C 75.8333,200.667 76.1667,200.333 76.5,200C 72.1794,199.501 67.8461,199.334 63.5,199.5C 63.5,201.5 63.5,203.5 63.5,205.5C 55.9368,207.138 48.2701,207.805 40.5,207.5C 40.5,202.167 40.5,196.833 40.5,191.5C 37.5,191.5 34.5,191.5 31.5,191.5C 32.1667,189.5 32.8333,187.5 33.5,185.5C 35.5,185.5 37.5,185.5 39.5,185.5C 39.5,184.5 39.5,183.5 39.5,182.5C 47.5,182.5 55.5,182.5 63.5,182.5C 63.5,180.167 63.5,177.833 63.5,175.5C 60.1016,175.82 56.7683,175.487 53.5,174.5C 53.7093,173.914 54.0426,173.414 54.5,173C 62.7969,171.877 71.1302,171.377 79.5,171.5C 79.5,170.5 79.5,169.5 79.5,168.5C 75.4862,168.666 71.4862,168.499 67.5,168C 65.9559,167.71 64.6226,167.044 63.5,166C 68.9567,164.574 74.29,164.074 79.5,164.5C 85.7471,165.007 91.0805,163.341 95.5,159.5C 97.9029,159.552 100.236,159.219 102.5,158.5C 107.41,157.26 112.41,156.427 117.5,156C 118.257,154.488 119.257,153.154 120.5,152C 123.239,150.974 125.572,149.474 127.5,147.5C 127.5,146.833 127.5,146.167 127.5,145.5C 127.5,144.833 127.5,144.167 127.5,143.5C 130.645,143.507 133.311,142.507 135.5,140.5C 136.552,140.649 137.552,140.483 138.5,140C 139.889,137.761 141.556,135.928 143.5,134.5C 145.086,133.325 146.586,131.991 148,130.5C 148.651,124.173 149.151,117.84 149.5,111.5C 150.653,105.347 150.82,99.0137 150,92.5C 148.362,90.2663 146.195,88.933 143.5,88.5 Z"/></g>
<g><path style="opacity:1" fill="#c4b8b9" d="M 218.5,152.5 C 206.863,157.984 195.196,163.484 183.5,169C 164.743,175.775 146.076,182.608 127.5,189.5C 119.607,192.243 111.607,194.576 103.5,196.5C 103.47,195.503 103.97,194.836 105,194.5C 111.772,193.369 117.939,190.869 123.5,187C 129.751,187.024 135.417,185.357 140.5,182C 147.906,179.665 155.239,177.331 162.5,175C 163.705,173.624 165.038,172.458 166.5,171.5C 170.463,171.911 174.13,171.078 177.5,169C 176.833,168.667 176.167,168.333 175.5,168C 182.203,163.878 189.536,161.544 197.5,161C 202.64,159.554 207.306,157.221 211.5,154C 213.813,153.338 216.146,152.838 218.5,152.5 Z"/></g>
<g><path style="opacity:1" fill="#6b5f67" d="M 224.5,149.5 C 224.5,150.833 224.5,152.167 224.5,153.5C 215.622,157.996 206.955,162.663 198.5,167.5C 177.731,176.858 156.731,185.191 135.5,192.5C 132.67,192.694 130.004,193.361 127.5,194.5C 127.5,192.833 127.5,191.167 127.5,189.5C 146.076,182.608 164.743,175.775 183.5,169C 195.196,163.484 206.863,157.984 218.5,152.5C 218.414,151.504 218.748,150.671 219.5,150C 221.134,149.506 222.801,149.34 224.5,149.5 Z"/></g>
<g><path style="opacity:1" fill="#302e37" d="M 198.5,167.5 C 199.653,168.313 199.653,169.313 198.5,170.5C 199.167,171.167 199.833,171.833 200.5,172.5C 199.174,172.205 197.841,172.705 196.5,174C 197.5,174.333 198.5,174.667 199.5,175C 196.854,175.497 194.187,175.664 191.5,175.5C 192.449,177.737 193.116,180.071 193.5,182.5C 196.079,182.083 198.246,182.75 200,184.5C 200.729,180.398 202.562,176.898 205.5,174C 211.061,172.735 216.561,171.235 222,169.5C 222.5,169.833 223,170.167 223.5,170.5C 220.353,172.16 217.02,173.327 213.5,174C 214.973,174.71 215.64,175.876 215.5,177.5C 213.535,176.871 211.535,176.204 209.5,175.5C 204.726,175.896 203.726,177.896 206.5,181.5C 208.409,180.652 210.409,180.318 212.5,180.5C 212.527,182.199 213.194,183.533 214.5,184.5C 212.696,187.098 210.362,189.265 207.5,191C 201.999,191.872 196.665,193.205 191.5,195C 190.073,196.797 188.24,197.964 186,198.5C 182.668,198.25 179.168,198.25 175.5,198.5C 175.5,197.167 175.5,195.833 175.5,194.5C 178.601,194.692 181.601,195.358 184.5,196.5C 185.672,196.081 186.672,195.415 187.5,194.5C 184.5,194.167 181.5,193.833 178.5,193.5C 173.907,194.01 169.407,194.01 165,193.5C 162.472,193.558 160.472,194.558 159,196.5C 153.171,195.277 153.338,194.11 159.5,193C 156.947,192.239 154.447,191.406 152,190.5C 151.578,193.051 150.078,194.385 147.5,194.5C 144.823,194.251 142.49,193.251 140.5,191.5C 138.929,192.309 137.262,192.643 135.5,192.5C 156.731,185.191 177.731,176.858 198.5,167.5 Z"/></g>
<g><path style="opacity:1" fill="#3d3a40" d="M 224.5,202.5 C 224.5,209.833 224.5,217.167 224.5,224.5C 212.167,224.5 199.833,224.5 187.5,224.5C 183.702,223.517 179.702,223.183 175.5,223.5C 175.5,216.5 175.5,209.5 175.5,202.5C 174.5,202.5 173.5,202.5 172.5,202.5C 172.5,201.5 172.5,200.5 172.5,199.5C 173.791,199.737 174.791,199.404 175.5,198.5C 179.168,198.25 182.668,198.25 186,198.5C 188.24,197.964 190.073,196.797 191.5,195C 196.665,193.205 201.999,191.872 207.5,191C 210.362,189.265 212.696,187.098 214.5,184.5C 215.117,184.389 215.617,184.056 216,183.5C 217.307,184.772 218.807,185.772 220.5,186.5C 222.297,187.695 223.297,189.362 223.5,191.5C 220.753,191.187 218.086,191.52 215.5,192.5C 216.981,196.321 219.647,198.655 223.5,199.5C 223.263,200.791 223.596,201.791 224.5,202.5 Z"/></g>
<g><path style="opacity:1" fill="#2a292d" d="M 175.5,198.5 C 174.791,199.404 173.791,199.737 172.5,199.5C 172.5,200.5 172.5,201.5 172.5,202.5C 173.5,202.5 174.5,202.5 175.5,202.5C 175.5,209.5 175.5,216.5 175.5,223.5C 179.702,223.183 183.702,223.517 187.5,224.5C 124.833,224.5 62.1667,224.5 -0.5,224.5C -0.5,222.5 -0.5,220.5 -0.5,218.5C 43.5297,217.489 86.1964,209.489 127.5,194.5C 130.004,193.361 132.67,192.694 135.5,192.5C 137.262,192.643 138.929,192.309 140.5,191.5C 142.49,193.251 144.823,194.251 147.5,194.5C 150.078,194.385 151.578,193.051 152,190.5C 154.447,191.406 156.947,192.239 159.5,193C 153.338,194.11 153.171,195.277 159,196.5C 160.472,194.558 162.472,193.558 165,193.5C 169.407,194.01 173.907,194.01 178.5,193.5C 181.5,193.833 184.5,194.167 187.5,194.5C 186.672,195.415 185.672,196.081 184.5,196.5C 181.601,195.358 178.601,194.692 175.5,194.5C 175.5,195.833 175.5,197.167 175.5,198.5 Z"/></g>
<g><path style="opacity:1" fill="#cec2c1" d="M 97.5,197.5 C 87.2427,200.945 76.7427,203.945 66,206.5C 59.7039,207.604 53.5372,208.604 47.5,209.5C 36.8808,210.994 26.2141,211.994 15.5,212.5C 23.5606,210.622 31.894,208.955 40.5,207.5C 48.2701,207.805 55.9368,207.138 63.5,205.5C 63.5,203.5 63.5,201.5 63.5,199.5C 67.8461,199.334 72.1794,199.501 76.5,200C 76.1667,200.333 75.8333,200.667 75.5,201C 76.5,201.167 77.5,201.333 78.5,201.5C 84.873,200.159 91.2063,198.826 97.5,197.5 Z"/></g>
<g><path style="opacity:1" fill="#938686" d="M 47.5,209.5 C 37.1547,212.293 26.488,213.627 15.5,213.5C 15.5,213.167 15.5,212.833 15.5,212.5C 26.2141,211.994 36.8808,210.994 47.5,209.5 Z"/></g>
<g><path style="opacity:1" fill="#695d5e" d="M 127.5,189.5 C 127.5,191.167 127.5,192.833 127.5,194.5C 86.1964,209.489 43.5297,217.489 -0.5,218.5C -0.5,217.167 -0.5,215.833 -0.5,214.5C 5.02621,214.821 10.3595,214.488 15.5,213.5C 26.488,213.627 37.1547,212.293 47.5,209.5C 53.5372,208.604 59.7039,207.604 66,206.5C 76.7427,203.945 87.2427,200.945 97.5,197.5C 99.5,197.167 101.5,196.833 103.5,196.5C 111.607,194.576 119.607,192.243 127.5,189.5 Z"/></g>
</svg>
